M48
; DRILL file {KiCad (5.1.2-1)-1} date Wednesday, 31 July 2019 at 09:11:43
; FORMAT={-:-/ absolute / metric / decimal}
; #@! TF.CreationDate,2019-07-31T09:11:43+08:00
; #@! TF.GenerationSoftware,Kicad,Pcbnew,(5.1.2-1)-1
; #@! TF.FileFunction,Plated,1,2,PTH
FMAT,2
METRIC
T1C0.400
T2C0.600
T3C0.800
T4C1.000
T5C1.016
T6C1.300
T7C3.048
%
G90
G05
T1
X121.158Y-113.233
X121.158Y-117.577
X121.209Y-122.072
X124.587Y-121.031
X129.54Y-114.706
X130.785Y-110.109
X145.491Y-104.902
X147.345Y-106.756
X148.946Y-108.356
X150.647Y-110.058
X153.441Y-114.757
X156.616Y-103.734
X156.972Y-114.402
X158.979Y-101.905
X160.02Y-106.782
X162.179Y-104.8
X163.093Y-112.014
X163.271Y-109.83
X164.109Y-107.315
X166.091Y-101.93
T2
X172.473Y-114.3
X174.473Y-114.3
X137.719Y-94.412
X137.719Y-96.412
X170.332Y-95.961
X172.332Y-95.961
X139.065Y-104.959
X139.065Y-106.959
X165.379Y-95.961
X167.379Y-95.961
T4
X153.949Y-81.686
X153.949Y-84.226
X153.949Y-86.766
X132.08Y-82.55
X132.08Y-85.09
X143.535Y-119.786
X146.075Y-119.786
X159.512Y-115.545
X162.052Y-115.545
X132.131Y-93.193
X132.131Y-95.733
X148.869Y-81.686
X148.869Y-84.226
X148.869Y-86.766
X174.269Y-81.686
X174.269Y-84.226
X174.269Y-86.766
X146.964Y-97.561
X149.504Y-97.561
X169.189Y-81.686
X169.189Y-84.226
X169.189Y-86.766
X113.589Y-82.525
X113.589Y-85.065
X143.789Y-81.686
X143.789Y-84.226
X143.789Y-86.766
X164.109Y-81.686
X164.109Y-84.226
X164.109Y-86.766
X159.537Y-97.561
X162.077Y-97.561
X113.563Y-93.167
X113.563Y-95.707
X144.424Y-115.57
X146.964Y-115.57
X149.504Y-115.57
X159.512Y-92.659
X162.052Y-92.659
X146.964Y-92.659
X149.504Y-92.659
X159.029Y-81.686
X159.029Y-84.226
X159.029Y-86.766
X157.201Y-120.015
X159.741Y-120.015
X162.281Y-120.015
X164.821Y-120.015
X167.361Y-120.015
X169.901Y-120.015
X172.441Y-120.015
X138.709Y-81.686
X138.709Y-84.226
X138.709Y-86.766
T5
X161.798Y-123.825
X164.338Y-123.825
X166.878Y-123.825
X169.418Y-123.825
X171.958Y-123.825
X174.498Y-123.825
X156.718Y-75.565
X159.258Y-75.565
X161.798Y-75.565
X164.338Y-75.565
X166.878Y-75.565
X169.418Y-75.565
X171.958Y-75.565
X174.498Y-75.565
X129.794Y-75.565
X132.334Y-75.565
X134.874Y-75.565
X137.414Y-75.565
X139.954Y-75.565
X142.494Y-75.565
X145.034Y-75.565
X147.574Y-75.565
X150.114Y-75.565
X152.654Y-75.565
X138.938Y-123.825
X141.478Y-123.825
X144.018Y-123.825
X146.558Y-123.825
X149.098Y-123.825
X151.638Y-123.825
X154.178Y-123.825
X156.718Y-123.825
T6
X127.102Y-112.373
X127.102Y-117.373
X132.102Y-112.373
X132.102Y-117.373
X137.102Y-112.373
X137.102Y-117.373
T7
X177.038Y-118.745
X126.238Y-75.565
X124.968Y-123.825
X177.038Y-90.805
T3
G00X168.473Y-100.689
M15
G01X167.773Y-100.689
M16
G05
G00X168.473Y-103.189
M15
G01X167.773Y-103.189
M16
G05
G00X168.473Y-108.189
M15
G01X167.773Y-108.189
M16
G05
G00X168.473Y-110.689
M15
G01X167.773Y-110.689
M16
G05
G00X173.123Y-106.039
M15
G01X173.123Y-105.339
M16
G05
T4
G00X115.641Y-104.689
M15
G01X115.641Y-106.689
M16
G05
G00X117.641Y-110.389
M15
G01X119.641Y-110.389
M16
G05
G00X121.641Y-104.689
M15
G01X121.641Y-106.689
M16
G05
T0
M30
