G04 #@! TF.GenerationSoftware,KiCad,Pcbnew,(5.1.2-1)-1*
G04 #@! TF.CreationDate,2019-07-31T09:11:47+08:00*
G04 #@! TF.ProjectId,arduino_fft_led,61726475-696e-46f5-9f66-66745f6c6564,rev?*
G04 #@! TF.SameCoordinates,Original*
G04 #@! TF.FileFunction,Legend,Top*
G04 #@! TF.FilePolarity,Positive*
%FSLAX46Y46*%
G04 Gerber Fmt 4.6, Leading zero omitted, Abs format (unit mm)*
G04 Created by KiCad (PCBNEW (5.1.2-1)-1) date 2019-07-31 09:11:47*
%MOMM*%
%LPD*%
G04 APERTURE LIST*
%ADD10C,0.150000*%
%ADD11C,0.120000*%
%ADD12C,0.100000*%
%ADD13C,0.254000*%
%ADD14C,0.300000*%
%ADD15O,1.727200X2.032000*%
%ADD16C,4.064000*%
%ADD17R,3.500000X3.500000*%
%ADD18C,3.000000*%
%ADD19C,3.500000*%
%ADD20R,2.500000X1.800000*%
%ADD21R,1.800000X2.500000*%
%ADD22C,1.200000*%
%ADD23R,1.700000X1.700000*%
%ADD24O,1.700000X1.700000*%
%ADD25C,2.000000*%
%ADD26R,2.000000X2.000000*%
%ADD27R,1.200000X1.200000*%
%ADD28C,2.340000*%
G04 APERTURE END LIST*
D10*
X163499800Y-117856000D02*
X164414200Y-117856000D01*
X155956000Y-95123000D02*
X152019000Y-95123000D01*
X134823200Y-79857600D02*
X111150400Y-79857600D01*
X134696200Y-98018600D02*
X134823200Y-79857600D01*
X111150400Y-98018600D02*
X134696200Y-98018600D01*
X111099600Y-79933800D02*
X111150400Y-98018600D01*
X142011400Y-95123000D02*
X142011400Y-117729000D01*
X143535400Y-95123000D02*
X142011400Y-95123000D01*
X164465000Y-117856000D02*
X164465000Y-95173800D01*
X151942800Y-117830600D02*
X158521400Y-117881400D01*
X139390380Y-120999285D02*
X139390380Y-121570714D01*
X139390380Y-121285000D02*
X138390380Y-121285000D01*
X138533238Y-121380238D01*
X138628476Y-121475476D01*
X138676095Y-121570714D01*
X140208000Y-125095000D02*
X157988000Y-125095000D01*
X157988000Y-125095000D02*
X157988000Y-122555000D01*
X157988000Y-122555000D02*
X140208000Y-122555000D01*
X137388000Y-125375000D02*
X138938000Y-125375000D01*
X140208000Y-125095000D02*
X140208000Y-122555000D01*
X138938000Y-122275000D02*
X137388000Y-122275000D01*
X137388000Y-122275000D02*
X137388000Y-125375000D01*
X163068000Y-125095000D02*
X175768000Y-125095000D01*
X175768000Y-125095000D02*
X175768000Y-122555000D01*
X175768000Y-122555000D02*
X163068000Y-122555000D01*
X160248000Y-125375000D02*
X161798000Y-125375000D01*
X163068000Y-125095000D02*
X163068000Y-122555000D01*
X161798000Y-122275000D02*
X160248000Y-122275000D01*
X160248000Y-122275000D02*
X160248000Y-125375000D01*
X131064000Y-76835000D02*
X153924000Y-76835000D01*
X153924000Y-76835000D02*
X153924000Y-74295000D01*
X153924000Y-74295000D02*
X131064000Y-74295000D01*
X128244000Y-77115000D02*
X129794000Y-77115000D01*
X131064000Y-76835000D02*
X131064000Y-74295000D01*
X129794000Y-74015000D02*
X128244000Y-74015000D01*
X128244000Y-74015000D02*
X128244000Y-77115000D01*
X157988000Y-76835000D02*
X175768000Y-76835000D01*
X175768000Y-76835000D02*
X175768000Y-74295000D01*
X175768000Y-74295000D02*
X157988000Y-74295000D01*
X155168000Y-77115000D02*
X156718000Y-77115000D01*
X157988000Y-76835000D02*
X157988000Y-74295000D01*
X156718000Y-74015000D02*
X155168000Y-74015000D01*
X155168000Y-74015000D02*
X155168000Y-77115000D01*
X127254000Y-123825000D02*
G75*
G03X127254000Y-123825000I-2286000J0D01*
G01*
X179324000Y-118745000D02*
G75*
G03X179324000Y-118745000I-2286000J0D01*
G01*
X128524000Y-75565000D02*
G75*
G03X128524000Y-75565000I-2286000J0D01*
G01*
X179324000Y-90805000D02*
G75*
G03X179324000Y-90805000I-2286000J0D01*
G01*
D11*
X122740600Y-101939400D02*
X122740600Y-100889400D01*
X121690600Y-100889400D02*
X122740600Y-100889400D01*
X116640600Y-110289400D02*
X107840600Y-110289400D01*
X107840600Y-110289400D02*
X107840600Y-101089400D01*
X122540600Y-107589400D02*
X122540600Y-110289400D01*
X122540600Y-110289400D02*
X120640600Y-110289400D01*
X107840600Y-101089400D02*
X122540600Y-101089400D01*
X122540600Y-101089400D02*
X122540600Y-103689400D01*
D12*
X178922600Y-99589400D02*
X179522600Y-99589400D01*
X179522600Y-99589400D02*
X179522600Y-100789400D01*
X165922600Y-99589400D02*
X165322600Y-99589400D01*
X165322600Y-99589400D02*
X165322600Y-100989400D01*
X165922600Y-111789400D02*
X165322600Y-111789400D01*
X165322600Y-111789400D02*
X165322600Y-110289400D01*
X178222600Y-111789400D02*
X178622600Y-111789400D01*
X178622600Y-111789400D02*
X179522600Y-110889400D01*
X179522600Y-110889400D02*
X179522600Y-110589400D01*
X179522600Y-110589400D02*
X179722600Y-110589400D01*
D11*
X137379400Y-88096400D02*
X140039400Y-88096400D01*
X137379400Y-82956400D02*
X137379400Y-88096400D01*
X140039400Y-82956400D02*
X140039400Y-88096400D01*
X137379400Y-82956400D02*
X140039400Y-82956400D01*
X137379400Y-81686400D02*
X137379400Y-80356400D01*
X137379400Y-80356400D02*
X138709400Y-80356400D01*
X142459400Y-80356400D02*
X143789400Y-80356400D01*
X142459400Y-81686400D02*
X142459400Y-80356400D01*
X142459400Y-82956400D02*
X145119400Y-82956400D01*
X145119400Y-82956400D02*
X145119400Y-88096400D01*
X142459400Y-82956400D02*
X142459400Y-88096400D01*
X142459400Y-88096400D02*
X145119400Y-88096400D01*
X147539400Y-88096400D02*
X150199400Y-88096400D01*
X147539400Y-82956400D02*
X147539400Y-88096400D01*
X150199400Y-82956400D02*
X150199400Y-88096400D01*
X147539400Y-82956400D02*
X150199400Y-82956400D01*
X147539400Y-81686400D02*
X147539400Y-80356400D01*
X147539400Y-80356400D02*
X148869400Y-80356400D01*
X152619400Y-80356400D02*
X153949400Y-80356400D01*
X152619400Y-81686400D02*
X152619400Y-80356400D01*
X152619400Y-82956400D02*
X155279400Y-82956400D01*
X155279400Y-82956400D02*
X155279400Y-88096400D01*
X152619400Y-82956400D02*
X152619400Y-88096400D01*
X152619400Y-88096400D02*
X155279400Y-88096400D01*
X157699400Y-88096400D02*
X160359400Y-88096400D01*
X157699400Y-82956400D02*
X157699400Y-88096400D01*
X160359400Y-82956400D02*
X160359400Y-88096400D01*
X157699400Y-82956400D02*
X160359400Y-82956400D01*
X157699400Y-81686400D02*
X157699400Y-80356400D01*
X157699400Y-80356400D02*
X159029400Y-80356400D01*
X162779400Y-80356400D02*
X164109400Y-80356400D01*
X162779400Y-81686400D02*
X162779400Y-80356400D01*
X162779400Y-82956400D02*
X165439400Y-82956400D01*
X165439400Y-82956400D02*
X165439400Y-88096400D01*
X162779400Y-82956400D02*
X162779400Y-88096400D01*
X162779400Y-88096400D02*
X165439400Y-88096400D01*
X167859400Y-88096400D02*
X170519400Y-88096400D01*
X167859400Y-82956400D02*
X167859400Y-88096400D01*
X170519400Y-82956400D02*
X170519400Y-88096400D01*
X167859400Y-82956400D02*
X170519400Y-82956400D01*
X167859400Y-81686400D02*
X167859400Y-80356400D01*
X167859400Y-80356400D02*
X169189400Y-80356400D01*
X172939400Y-80356400D02*
X174269400Y-80356400D01*
X172939400Y-81686400D02*
X172939400Y-80356400D01*
X172939400Y-82956400D02*
X175599400Y-82956400D01*
X175599400Y-82956400D02*
X175599400Y-88096400D01*
X172939400Y-82956400D02*
X172939400Y-88096400D01*
X172939400Y-88096400D02*
X175599400Y-88096400D01*
D12*
X147415400Y-121386400D02*
X147415400Y-118176400D01*
X147417118Y-121393611D02*
G75*
G02X147415400Y-118176400I-2611718J1607211D01*
G01*
D11*
X164309599Y-94566200D02*
X164309599Y-94966200D01*
X164109599Y-94766200D02*
X164509599Y-94766200D01*
X168460400Y-95591200D02*
X168460400Y-96331200D01*
X168420400Y-95424200D02*
X168420400Y-96498200D01*
X168380400Y-95297200D02*
X168380400Y-96625200D01*
X168340400Y-95193200D02*
X168340400Y-96729200D01*
X168300400Y-95102200D02*
X168300400Y-96820200D01*
X168260400Y-95021200D02*
X168260400Y-96901200D01*
X168220400Y-94948200D02*
X168220400Y-96974200D01*
X168180400Y-96801200D02*
X168180400Y-97041200D01*
X168180400Y-94881200D02*
X168180400Y-95121200D01*
X168140400Y-96801200D02*
X168140400Y-97103200D01*
X168140400Y-94819200D02*
X168140400Y-95121200D01*
X168100400Y-96801200D02*
X168100400Y-97161200D01*
X168100400Y-94761200D02*
X168100400Y-95121200D01*
X168060400Y-96801200D02*
X168060400Y-97215200D01*
X168060400Y-94707200D02*
X168060400Y-95121200D01*
X168020400Y-96801200D02*
X168020400Y-97265200D01*
X168020400Y-94657200D02*
X168020400Y-95121200D01*
X167980400Y-96801200D02*
X167980400Y-97312200D01*
X167980400Y-94610200D02*
X167980400Y-95121200D01*
X167940400Y-96801200D02*
X167940400Y-97357200D01*
X167940400Y-94565200D02*
X167940400Y-95121200D01*
X167900400Y-96801200D02*
X167900400Y-97399200D01*
X167900400Y-94523200D02*
X167900400Y-95121200D01*
X167860400Y-96801200D02*
X167860400Y-97439200D01*
X167860400Y-94483200D02*
X167860400Y-95121200D01*
X167820400Y-96801200D02*
X167820400Y-97477200D01*
X167820400Y-94445200D02*
X167820400Y-95121200D01*
X167780400Y-96801200D02*
X167780400Y-97513200D01*
X167780400Y-94409200D02*
X167780400Y-95121200D01*
X167740400Y-96801200D02*
X167740400Y-97548200D01*
X167740400Y-94374200D02*
X167740400Y-95121200D01*
X167700400Y-96801200D02*
X167700400Y-97580200D01*
X167700400Y-94342200D02*
X167700400Y-95121200D01*
X167660400Y-96801200D02*
X167660400Y-97611200D01*
X167660400Y-94311200D02*
X167660400Y-95121200D01*
X167620400Y-96801200D02*
X167620400Y-97641200D01*
X167620400Y-94281200D02*
X167620400Y-95121200D01*
X167580400Y-96801200D02*
X167580400Y-97669200D01*
X167580400Y-94253200D02*
X167580400Y-95121200D01*
X167540400Y-96801200D02*
X167540400Y-97696200D01*
X167540400Y-94226200D02*
X167540400Y-95121200D01*
X167500400Y-96801200D02*
X167500400Y-97721200D01*
X167500400Y-94201200D02*
X167500400Y-95121200D01*
X167460400Y-96801200D02*
X167460400Y-97746200D01*
X167460400Y-94176200D02*
X167460400Y-95121200D01*
X167420400Y-96801200D02*
X167420400Y-97769200D01*
X167420400Y-94153200D02*
X167420400Y-95121200D01*
X167380400Y-96801200D02*
X167380400Y-97791200D01*
X167380400Y-94131200D02*
X167380400Y-95121200D01*
X167340400Y-96801200D02*
X167340400Y-97812200D01*
X167340400Y-94110200D02*
X167340400Y-95121200D01*
X167300400Y-96801200D02*
X167300400Y-97831200D01*
X167300400Y-94091200D02*
X167300400Y-95121200D01*
X167260400Y-96801200D02*
X167260400Y-97850200D01*
X167260400Y-94072200D02*
X167260400Y-95121200D01*
X167220400Y-96801200D02*
X167220400Y-97868200D01*
X167220400Y-94054200D02*
X167220400Y-95121200D01*
X167180400Y-96801200D02*
X167180400Y-97885200D01*
X167180400Y-94037200D02*
X167180400Y-95121200D01*
X167140400Y-96801200D02*
X167140400Y-97901200D01*
X167140400Y-94021200D02*
X167140400Y-95121200D01*
X167100400Y-96801200D02*
X167100400Y-97915200D01*
X167100400Y-94007200D02*
X167100400Y-95121200D01*
X167059400Y-96801200D02*
X167059400Y-97929200D01*
X167059400Y-93993200D02*
X167059400Y-95121200D01*
X167019400Y-96801200D02*
X167019400Y-97943200D01*
X167019400Y-93979200D02*
X167019400Y-95121200D01*
X166979400Y-96801200D02*
X166979400Y-97955200D01*
X166979400Y-93967200D02*
X166979400Y-95121200D01*
X166939400Y-96801200D02*
X166939400Y-97966200D01*
X166939400Y-93956200D02*
X166939400Y-95121200D01*
X166899400Y-96801200D02*
X166899400Y-97977200D01*
X166899400Y-93945200D02*
X166899400Y-95121200D01*
X166859400Y-96801200D02*
X166859400Y-97986200D01*
X166859400Y-93936200D02*
X166859400Y-95121200D01*
X166819400Y-96801200D02*
X166819400Y-97995200D01*
X166819400Y-93927200D02*
X166819400Y-95121200D01*
X166779400Y-96801200D02*
X166779400Y-98003200D01*
X166779400Y-93919200D02*
X166779400Y-95121200D01*
X166739400Y-96801200D02*
X166739400Y-98011200D01*
X166739400Y-93911200D02*
X166739400Y-95121200D01*
X166699400Y-96801200D02*
X166699400Y-98017200D01*
X166699400Y-93905200D02*
X166699400Y-95121200D01*
X166659400Y-96801200D02*
X166659400Y-98023200D01*
X166659400Y-93899200D02*
X166659400Y-95121200D01*
X166619400Y-96801200D02*
X166619400Y-98028200D01*
X166619400Y-93894200D02*
X166619400Y-95121200D01*
X166579400Y-96801200D02*
X166579400Y-98032200D01*
X166579400Y-93890200D02*
X166579400Y-95121200D01*
X166539400Y-93887200D02*
X166539400Y-98035200D01*
X166499400Y-93884200D02*
X166499400Y-98038200D01*
X166459400Y-93882200D02*
X166459400Y-98040200D01*
X166419400Y-93881200D02*
X166419400Y-98041200D01*
X166379400Y-93881200D02*
X166379400Y-98041200D01*
X168499400Y-95961200D02*
G75*
G03X168499400Y-95961200I-2120000J0D01*
G01*
X173452400Y-95961200D02*
G75*
G03X173452400Y-95961200I-2120000J0D01*
G01*
X171332400Y-93881200D02*
X171332400Y-98041200D01*
X171372400Y-93881200D02*
X171372400Y-98041200D01*
X171412400Y-93882200D02*
X171412400Y-98040200D01*
X171452400Y-93884200D02*
X171452400Y-98038200D01*
X171492400Y-93887200D02*
X171492400Y-98035200D01*
X171532400Y-93890200D02*
X171532400Y-95121200D01*
X171532400Y-96801200D02*
X171532400Y-98032200D01*
X171572400Y-93894200D02*
X171572400Y-95121200D01*
X171572400Y-96801200D02*
X171572400Y-98028200D01*
X171612400Y-93899200D02*
X171612400Y-95121200D01*
X171612400Y-96801200D02*
X171612400Y-98023200D01*
X171652400Y-93905200D02*
X171652400Y-95121200D01*
X171652400Y-96801200D02*
X171652400Y-98017200D01*
X171692400Y-93911200D02*
X171692400Y-95121200D01*
X171692400Y-96801200D02*
X171692400Y-98011200D01*
X171732400Y-93919200D02*
X171732400Y-95121200D01*
X171732400Y-96801200D02*
X171732400Y-98003200D01*
X171772400Y-93927200D02*
X171772400Y-95121200D01*
X171772400Y-96801200D02*
X171772400Y-97995200D01*
X171812400Y-93936200D02*
X171812400Y-95121200D01*
X171812400Y-96801200D02*
X171812400Y-97986200D01*
X171852400Y-93945200D02*
X171852400Y-95121200D01*
X171852400Y-96801200D02*
X171852400Y-97977200D01*
X171892400Y-93956200D02*
X171892400Y-95121200D01*
X171892400Y-96801200D02*
X171892400Y-97966200D01*
X171932400Y-93967200D02*
X171932400Y-95121200D01*
X171932400Y-96801200D02*
X171932400Y-97955200D01*
X171972400Y-93979200D02*
X171972400Y-95121200D01*
X171972400Y-96801200D02*
X171972400Y-97943200D01*
X172012400Y-93993200D02*
X172012400Y-95121200D01*
X172012400Y-96801200D02*
X172012400Y-97929200D01*
X172053400Y-94007200D02*
X172053400Y-95121200D01*
X172053400Y-96801200D02*
X172053400Y-97915200D01*
X172093400Y-94021200D02*
X172093400Y-95121200D01*
X172093400Y-96801200D02*
X172093400Y-97901200D01*
X172133400Y-94037200D02*
X172133400Y-95121200D01*
X172133400Y-96801200D02*
X172133400Y-97885200D01*
X172173400Y-94054200D02*
X172173400Y-95121200D01*
X172173400Y-96801200D02*
X172173400Y-97868200D01*
X172213400Y-94072200D02*
X172213400Y-95121200D01*
X172213400Y-96801200D02*
X172213400Y-97850200D01*
X172253400Y-94091200D02*
X172253400Y-95121200D01*
X172253400Y-96801200D02*
X172253400Y-97831200D01*
X172293400Y-94110200D02*
X172293400Y-95121200D01*
X172293400Y-96801200D02*
X172293400Y-97812200D01*
X172333400Y-94131200D02*
X172333400Y-95121200D01*
X172333400Y-96801200D02*
X172333400Y-97791200D01*
X172373400Y-94153200D02*
X172373400Y-95121200D01*
X172373400Y-96801200D02*
X172373400Y-97769200D01*
X172413400Y-94176200D02*
X172413400Y-95121200D01*
X172413400Y-96801200D02*
X172413400Y-97746200D01*
X172453400Y-94201200D02*
X172453400Y-95121200D01*
X172453400Y-96801200D02*
X172453400Y-97721200D01*
X172493400Y-94226200D02*
X172493400Y-95121200D01*
X172493400Y-96801200D02*
X172493400Y-97696200D01*
X172533400Y-94253200D02*
X172533400Y-95121200D01*
X172533400Y-96801200D02*
X172533400Y-97669200D01*
X172573400Y-94281200D02*
X172573400Y-95121200D01*
X172573400Y-96801200D02*
X172573400Y-97641200D01*
X172613400Y-94311200D02*
X172613400Y-95121200D01*
X172613400Y-96801200D02*
X172613400Y-97611200D01*
X172653400Y-94342200D02*
X172653400Y-95121200D01*
X172653400Y-96801200D02*
X172653400Y-97580200D01*
X172693400Y-94374200D02*
X172693400Y-95121200D01*
X172693400Y-96801200D02*
X172693400Y-97548200D01*
X172733400Y-94409200D02*
X172733400Y-95121200D01*
X172733400Y-96801200D02*
X172733400Y-97513200D01*
X172773400Y-94445200D02*
X172773400Y-95121200D01*
X172773400Y-96801200D02*
X172773400Y-97477200D01*
X172813400Y-94483200D02*
X172813400Y-95121200D01*
X172813400Y-96801200D02*
X172813400Y-97439200D01*
X172853400Y-94523200D02*
X172853400Y-95121200D01*
X172853400Y-96801200D02*
X172853400Y-97399200D01*
X172893400Y-94565200D02*
X172893400Y-95121200D01*
X172893400Y-96801200D02*
X172893400Y-97357200D01*
X172933400Y-94610200D02*
X172933400Y-95121200D01*
X172933400Y-96801200D02*
X172933400Y-97312200D01*
X172973400Y-94657200D02*
X172973400Y-95121200D01*
X172973400Y-96801200D02*
X172973400Y-97265200D01*
X173013400Y-94707200D02*
X173013400Y-95121200D01*
X173013400Y-96801200D02*
X173013400Y-97215200D01*
X173053400Y-94761200D02*
X173053400Y-95121200D01*
X173053400Y-96801200D02*
X173053400Y-97161200D01*
X173093400Y-94819200D02*
X173093400Y-95121200D01*
X173093400Y-96801200D02*
X173093400Y-97103200D01*
X173133400Y-94881200D02*
X173133400Y-95121200D01*
X173133400Y-96801200D02*
X173133400Y-97041200D01*
X173173400Y-94948200D02*
X173173400Y-96974200D01*
X173213400Y-95021200D02*
X173213400Y-96901200D01*
X173253400Y-95102200D02*
X173253400Y-96820200D01*
X173293400Y-95193200D02*
X173293400Y-96729200D01*
X173333400Y-95297200D02*
X173333400Y-96625200D01*
X173373400Y-95424200D02*
X173373400Y-96498200D01*
X173413400Y-95591200D02*
X173413400Y-96331200D01*
X169062599Y-94766200D02*
X169462599Y-94766200D01*
X169262599Y-94566200D02*
X169262599Y-94966200D01*
X175592600Y-114300000D02*
G75*
G03X175592600Y-114300000I-2120000J0D01*
G01*
X173472600Y-116380000D02*
X173472600Y-112220000D01*
X173432600Y-116380000D02*
X173432600Y-112220000D01*
X173392600Y-116379000D02*
X173392600Y-112221000D01*
X173352600Y-116377000D02*
X173352600Y-112223000D01*
X173312600Y-116374000D02*
X173312600Y-112226000D01*
X173272600Y-116371000D02*
X173272600Y-115140000D01*
X173272600Y-113460000D02*
X173272600Y-112229000D01*
X173232600Y-116367000D02*
X173232600Y-115140000D01*
X173232600Y-113460000D02*
X173232600Y-112233000D01*
X173192600Y-116362000D02*
X173192600Y-115140000D01*
X173192600Y-113460000D02*
X173192600Y-112238000D01*
X173152600Y-116356000D02*
X173152600Y-115140000D01*
X173152600Y-113460000D02*
X173152600Y-112244000D01*
X173112600Y-116350000D02*
X173112600Y-115140000D01*
X173112600Y-113460000D02*
X173112600Y-112250000D01*
X173072600Y-116342000D02*
X173072600Y-115140000D01*
X173072600Y-113460000D02*
X173072600Y-112258000D01*
X173032600Y-116334000D02*
X173032600Y-115140000D01*
X173032600Y-113460000D02*
X173032600Y-112266000D01*
X172992600Y-116325000D02*
X172992600Y-115140000D01*
X172992600Y-113460000D02*
X172992600Y-112275000D01*
X172952600Y-116316000D02*
X172952600Y-115140000D01*
X172952600Y-113460000D02*
X172952600Y-112284000D01*
X172912600Y-116305000D02*
X172912600Y-115140000D01*
X172912600Y-113460000D02*
X172912600Y-112295000D01*
X172872600Y-116294000D02*
X172872600Y-115140000D01*
X172872600Y-113460000D02*
X172872600Y-112306000D01*
X172832600Y-116282000D02*
X172832600Y-115140000D01*
X172832600Y-113460000D02*
X172832600Y-112318000D01*
X172792600Y-116268000D02*
X172792600Y-115140000D01*
X172792600Y-113460000D02*
X172792600Y-112332000D01*
X172751600Y-116254000D02*
X172751600Y-115140000D01*
X172751600Y-113460000D02*
X172751600Y-112346000D01*
X172711600Y-116240000D02*
X172711600Y-115140000D01*
X172711600Y-113460000D02*
X172711600Y-112360000D01*
X172671600Y-116224000D02*
X172671600Y-115140000D01*
X172671600Y-113460000D02*
X172671600Y-112376000D01*
X172631600Y-116207000D02*
X172631600Y-115140000D01*
X172631600Y-113460000D02*
X172631600Y-112393000D01*
X172591600Y-116189000D02*
X172591600Y-115140000D01*
X172591600Y-113460000D02*
X172591600Y-112411000D01*
X172551600Y-116170000D02*
X172551600Y-115140000D01*
X172551600Y-113460000D02*
X172551600Y-112430000D01*
X172511600Y-116151000D02*
X172511600Y-115140000D01*
X172511600Y-113460000D02*
X172511600Y-112449000D01*
X172471600Y-116130000D02*
X172471600Y-115140000D01*
X172471600Y-113460000D02*
X172471600Y-112470000D01*
X172431600Y-116108000D02*
X172431600Y-115140000D01*
X172431600Y-113460000D02*
X172431600Y-112492000D01*
X172391600Y-116085000D02*
X172391600Y-115140000D01*
X172391600Y-113460000D02*
X172391600Y-112515000D01*
X172351600Y-116060000D02*
X172351600Y-115140000D01*
X172351600Y-113460000D02*
X172351600Y-112540000D01*
X172311600Y-116035000D02*
X172311600Y-115140000D01*
X172311600Y-113460000D02*
X172311600Y-112565000D01*
X172271600Y-116008000D02*
X172271600Y-115140000D01*
X172271600Y-113460000D02*
X172271600Y-112592000D01*
X172231600Y-115980000D02*
X172231600Y-115140000D01*
X172231600Y-113460000D02*
X172231600Y-112620000D01*
X172191600Y-115950000D02*
X172191600Y-115140000D01*
X172191600Y-113460000D02*
X172191600Y-112650000D01*
X172151600Y-115919000D02*
X172151600Y-115140000D01*
X172151600Y-113460000D02*
X172151600Y-112681000D01*
X172111600Y-115887000D02*
X172111600Y-115140000D01*
X172111600Y-113460000D02*
X172111600Y-112713000D01*
X172071600Y-115852000D02*
X172071600Y-115140000D01*
X172071600Y-113460000D02*
X172071600Y-112748000D01*
X172031600Y-115816000D02*
X172031600Y-115140000D01*
X172031600Y-113460000D02*
X172031600Y-112784000D01*
X171991600Y-115778000D02*
X171991600Y-115140000D01*
X171991600Y-113460000D02*
X171991600Y-112822000D01*
X171951600Y-115738000D02*
X171951600Y-115140000D01*
X171951600Y-113460000D02*
X171951600Y-112862000D01*
X171911600Y-115696000D02*
X171911600Y-115140000D01*
X171911600Y-113460000D02*
X171911600Y-112904000D01*
X171871600Y-115651000D02*
X171871600Y-115140000D01*
X171871600Y-113460000D02*
X171871600Y-112949000D01*
X171831600Y-115604000D02*
X171831600Y-115140000D01*
X171831600Y-113460000D02*
X171831600Y-112996000D01*
X171791600Y-115554000D02*
X171791600Y-115140000D01*
X171791600Y-113460000D02*
X171791600Y-113046000D01*
X171751600Y-115500000D02*
X171751600Y-115140000D01*
X171751600Y-113460000D02*
X171751600Y-113100000D01*
X171711600Y-115442000D02*
X171711600Y-115140000D01*
X171711600Y-113460000D02*
X171711600Y-113158000D01*
X171671600Y-115380000D02*
X171671600Y-115140000D01*
X171671600Y-113460000D02*
X171671600Y-113220000D01*
X171631600Y-115313000D02*
X171631600Y-113287000D01*
X171591600Y-115240000D02*
X171591600Y-113360000D01*
X171551600Y-115159000D02*
X171551600Y-113441000D01*
X171511600Y-115068000D02*
X171511600Y-113532000D01*
X171471600Y-114964000D02*
X171471600Y-113636000D01*
X171431600Y-114837000D02*
X171431600Y-113763000D01*
X171391600Y-114670000D02*
X171391600Y-113930000D01*
X175742401Y-115495000D02*
X175342401Y-115495000D01*
X175542401Y-115695000D02*
X175542401Y-115295000D01*
X139838800Y-95411800D02*
G75*
G03X139838800Y-95411800I-2120000J0D01*
G01*
X139798800Y-95411800D02*
X135638800Y-95411800D01*
X139798800Y-95451800D02*
X135638800Y-95451800D01*
X139797800Y-95491800D02*
X135639800Y-95491800D01*
X139795800Y-95531800D02*
X135641800Y-95531800D01*
X139792800Y-95571800D02*
X135644800Y-95571800D01*
X139789800Y-95611800D02*
X138558800Y-95611800D01*
X136878800Y-95611800D02*
X135647800Y-95611800D01*
X139785800Y-95651800D02*
X138558800Y-95651800D01*
X136878800Y-95651800D02*
X135651800Y-95651800D01*
X139780800Y-95691800D02*
X138558800Y-95691800D01*
X136878800Y-95691800D02*
X135656800Y-95691800D01*
X139774800Y-95731800D02*
X138558800Y-95731800D01*
X136878800Y-95731800D02*
X135662800Y-95731800D01*
X139768800Y-95771800D02*
X138558800Y-95771800D01*
X136878800Y-95771800D02*
X135668800Y-95771800D01*
X139760800Y-95811800D02*
X138558800Y-95811800D01*
X136878800Y-95811800D02*
X135676800Y-95811800D01*
X139752800Y-95851800D02*
X138558800Y-95851800D01*
X136878800Y-95851800D02*
X135684800Y-95851800D01*
X139743800Y-95891800D02*
X138558800Y-95891800D01*
X136878800Y-95891800D02*
X135693800Y-95891800D01*
X139734800Y-95931800D02*
X138558800Y-95931800D01*
X136878800Y-95931800D02*
X135702800Y-95931800D01*
X139723800Y-95971800D02*
X138558800Y-95971800D01*
X136878800Y-95971800D02*
X135713800Y-95971800D01*
X139712800Y-96011800D02*
X138558800Y-96011800D01*
X136878800Y-96011800D02*
X135724800Y-96011800D01*
X139700800Y-96051800D02*
X138558800Y-96051800D01*
X136878800Y-96051800D02*
X135736800Y-96051800D01*
X139686800Y-96091800D02*
X138558800Y-96091800D01*
X136878800Y-96091800D02*
X135750800Y-96091800D01*
X139672800Y-96132800D02*
X138558800Y-96132800D01*
X136878800Y-96132800D02*
X135764800Y-96132800D01*
X139658800Y-96172800D02*
X138558800Y-96172800D01*
X136878800Y-96172800D02*
X135778800Y-96172800D01*
X139642800Y-96212800D02*
X138558800Y-96212800D01*
X136878800Y-96212800D02*
X135794800Y-96212800D01*
X139625800Y-96252800D02*
X138558800Y-96252800D01*
X136878800Y-96252800D02*
X135811800Y-96252800D01*
X139607800Y-96292800D02*
X138558800Y-96292800D01*
X136878800Y-96292800D02*
X135829800Y-96292800D01*
X139588800Y-96332800D02*
X138558800Y-96332800D01*
X136878800Y-96332800D02*
X135848800Y-96332800D01*
X139569800Y-96372800D02*
X138558800Y-96372800D01*
X136878800Y-96372800D02*
X135867800Y-96372800D01*
X139548800Y-96412800D02*
X138558800Y-96412800D01*
X136878800Y-96412800D02*
X135888800Y-96412800D01*
X139526800Y-96452800D02*
X138558800Y-96452800D01*
X136878800Y-96452800D02*
X135910800Y-96452800D01*
X139503800Y-96492800D02*
X138558800Y-96492800D01*
X136878800Y-96492800D02*
X135933800Y-96492800D01*
X139478800Y-96532800D02*
X138558800Y-96532800D01*
X136878800Y-96532800D02*
X135958800Y-96532800D01*
X139453800Y-96572800D02*
X138558800Y-96572800D01*
X136878800Y-96572800D02*
X135983800Y-96572800D01*
X139426800Y-96612800D02*
X138558800Y-96612800D01*
X136878800Y-96612800D02*
X136010800Y-96612800D01*
X139398800Y-96652800D02*
X138558800Y-96652800D01*
X136878800Y-96652800D02*
X136038800Y-96652800D01*
X139368800Y-96692800D02*
X138558800Y-96692800D01*
X136878800Y-96692800D02*
X136068800Y-96692800D01*
X139337800Y-96732800D02*
X138558800Y-96732800D01*
X136878800Y-96732800D02*
X136099800Y-96732800D01*
X139305800Y-96772800D02*
X138558800Y-96772800D01*
X136878800Y-96772800D02*
X136131800Y-96772800D01*
X139270800Y-96812800D02*
X138558800Y-96812800D01*
X136878800Y-96812800D02*
X136166800Y-96812800D01*
X139234800Y-96852800D02*
X138558800Y-96852800D01*
X136878800Y-96852800D02*
X136202800Y-96852800D01*
X139196800Y-96892800D02*
X138558800Y-96892800D01*
X136878800Y-96892800D02*
X136240800Y-96892800D01*
X139156800Y-96932800D02*
X138558800Y-96932800D01*
X136878800Y-96932800D02*
X136280800Y-96932800D01*
X139114800Y-96972800D02*
X138558800Y-96972800D01*
X136878800Y-96972800D02*
X136322800Y-96972800D01*
X139069800Y-97012800D02*
X138558800Y-97012800D01*
X136878800Y-97012800D02*
X136367800Y-97012800D01*
X139022800Y-97052800D02*
X138558800Y-97052800D01*
X136878800Y-97052800D02*
X136414800Y-97052800D01*
X138972800Y-97092800D02*
X138558800Y-97092800D01*
X136878800Y-97092800D02*
X136464800Y-97092800D01*
X138918800Y-97132800D02*
X138558800Y-97132800D01*
X136878800Y-97132800D02*
X136518800Y-97132800D01*
X138860800Y-97172800D02*
X138558800Y-97172800D01*
X136878800Y-97172800D02*
X136576800Y-97172800D01*
X138798800Y-97212800D02*
X138558800Y-97212800D01*
X136878800Y-97212800D02*
X136638800Y-97212800D01*
X138731800Y-97252800D02*
X136705800Y-97252800D01*
X138658800Y-97292800D02*
X136778800Y-97292800D01*
X138577800Y-97332800D02*
X136859800Y-97332800D01*
X138486800Y-97372800D02*
X136950800Y-97372800D01*
X138382800Y-97412800D02*
X137054800Y-97412800D01*
X138255800Y-97452800D02*
X137181800Y-97452800D01*
X138088800Y-97492800D02*
X137348800Y-97492800D01*
X138913800Y-93141999D02*
X138913800Y-93541999D01*
X139113800Y-93341999D02*
X138713800Y-93341999D01*
X137670000Y-108029201D02*
X138070000Y-108029201D01*
X137870000Y-108229201D02*
X137870000Y-107829201D01*
X138695000Y-103878400D02*
X139435000Y-103878400D01*
X138528000Y-103918400D02*
X139602000Y-103918400D01*
X138401000Y-103958400D02*
X139729000Y-103958400D01*
X138297000Y-103998400D02*
X139833000Y-103998400D01*
X138206000Y-104038400D02*
X139924000Y-104038400D01*
X138125000Y-104078400D02*
X140005000Y-104078400D01*
X138052000Y-104118400D02*
X140078000Y-104118400D01*
X139905000Y-104158400D02*
X140145000Y-104158400D01*
X137985000Y-104158400D02*
X138225000Y-104158400D01*
X139905000Y-104198400D02*
X140207000Y-104198400D01*
X137923000Y-104198400D02*
X138225000Y-104198400D01*
X139905000Y-104238400D02*
X140265000Y-104238400D01*
X137865000Y-104238400D02*
X138225000Y-104238400D01*
X139905000Y-104278400D02*
X140319000Y-104278400D01*
X137811000Y-104278400D02*
X138225000Y-104278400D01*
X139905000Y-104318400D02*
X140369000Y-104318400D01*
X137761000Y-104318400D02*
X138225000Y-104318400D01*
X139905000Y-104358400D02*
X140416000Y-104358400D01*
X137714000Y-104358400D02*
X138225000Y-104358400D01*
X139905000Y-104398400D02*
X140461000Y-104398400D01*
X137669000Y-104398400D02*
X138225000Y-104398400D01*
X139905000Y-104438400D02*
X140503000Y-104438400D01*
X137627000Y-104438400D02*
X138225000Y-104438400D01*
X139905000Y-104478400D02*
X140543000Y-104478400D01*
X137587000Y-104478400D02*
X138225000Y-104478400D01*
X139905000Y-104518400D02*
X140581000Y-104518400D01*
X137549000Y-104518400D02*
X138225000Y-104518400D01*
X139905000Y-104558400D02*
X140617000Y-104558400D01*
X137513000Y-104558400D02*
X138225000Y-104558400D01*
X139905000Y-104598400D02*
X140652000Y-104598400D01*
X137478000Y-104598400D02*
X138225000Y-104598400D01*
X139905000Y-104638400D02*
X140684000Y-104638400D01*
X137446000Y-104638400D02*
X138225000Y-104638400D01*
X139905000Y-104678400D02*
X140715000Y-104678400D01*
X137415000Y-104678400D02*
X138225000Y-104678400D01*
X139905000Y-104718400D02*
X140745000Y-104718400D01*
X137385000Y-104718400D02*
X138225000Y-104718400D01*
X139905000Y-104758400D02*
X140773000Y-104758400D01*
X137357000Y-104758400D02*
X138225000Y-104758400D01*
X139905000Y-104798400D02*
X140800000Y-104798400D01*
X137330000Y-104798400D02*
X138225000Y-104798400D01*
X139905000Y-104838400D02*
X140825000Y-104838400D01*
X137305000Y-104838400D02*
X138225000Y-104838400D01*
X139905000Y-104878400D02*
X140850000Y-104878400D01*
X137280000Y-104878400D02*
X138225000Y-104878400D01*
X139905000Y-104918400D02*
X140873000Y-104918400D01*
X137257000Y-104918400D02*
X138225000Y-104918400D01*
X139905000Y-104958400D02*
X140895000Y-104958400D01*
X137235000Y-104958400D02*
X138225000Y-104958400D01*
X139905000Y-104998400D02*
X140916000Y-104998400D01*
X137214000Y-104998400D02*
X138225000Y-104998400D01*
X139905000Y-105038400D02*
X140935000Y-105038400D01*
X137195000Y-105038400D02*
X138225000Y-105038400D01*
X139905000Y-105078400D02*
X140954000Y-105078400D01*
X137176000Y-105078400D02*
X138225000Y-105078400D01*
X139905000Y-105118400D02*
X140972000Y-105118400D01*
X137158000Y-105118400D02*
X138225000Y-105118400D01*
X139905000Y-105158400D02*
X140989000Y-105158400D01*
X137141000Y-105158400D02*
X138225000Y-105158400D01*
X139905000Y-105198400D02*
X141005000Y-105198400D01*
X137125000Y-105198400D02*
X138225000Y-105198400D01*
X139905000Y-105238400D02*
X141019000Y-105238400D01*
X137111000Y-105238400D02*
X138225000Y-105238400D01*
X139905000Y-105279400D02*
X141033000Y-105279400D01*
X137097000Y-105279400D02*
X138225000Y-105279400D01*
X139905000Y-105319400D02*
X141047000Y-105319400D01*
X137083000Y-105319400D02*
X138225000Y-105319400D01*
X139905000Y-105359400D02*
X141059000Y-105359400D01*
X137071000Y-105359400D02*
X138225000Y-105359400D01*
X139905000Y-105399400D02*
X141070000Y-105399400D01*
X137060000Y-105399400D02*
X138225000Y-105399400D01*
X139905000Y-105439400D02*
X141081000Y-105439400D01*
X137049000Y-105439400D02*
X138225000Y-105439400D01*
X139905000Y-105479400D02*
X141090000Y-105479400D01*
X137040000Y-105479400D02*
X138225000Y-105479400D01*
X139905000Y-105519400D02*
X141099000Y-105519400D01*
X137031000Y-105519400D02*
X138225000Y-105519400D01*
X139905000Y-105559400D02*
X141107000Y-105559400D01*
X137023000Y-105559400D02*
X138225000Y-105559400D01*
X139905000Y-105599400D02*
X141115000Y-105599400D01*
X137015000Y-105599400D02*
X138225000Y-105599400D01*
X139905000Y-105639400D02*
X141121000Y-105639400D01*
X137009000Y-105639400D02*
X138225000Y-105639400D01*
X139905000Y-105679400D02*
X141127000Y-105679400D01*
X137003000Y-105679400D02*
X138225000Y-105679400D01*
X139905000Y-105719400D02*
X141132000Y-105719400D01*
X136998000Y-105719400D02*
X138225000Y-105719400D01*
X139905000Y-105759400D02*
X141136000Y-105759400D01*
X136994000Y-105759400D02*
X138225000Y-105759400D01*
X136991000Y-105799400D02*
X141139000Y-105799400D01*
X136988000Y-105839400D02*
X141142000Y-105839400D01*
X136986000Y-105879400D02*
X141144000Y-105879400D01*
X136985000Y-105919400D02*
X141145000Y-105919400D01*
X136985000Y-105959400D02*
X141145000Y-105959400D01*
X141185000Y-105959400D02*
G75*
G03X141185000Y-105959400I-2120000J0D01*
G01*
X141171600Y-108953400D02*
X141171600Y-121293400D01*
X123031600Y-108953400D02*
X123031600Y-121293400D01*
X141171600Y-108953400D02*
X123031600Y-108953400D01*
X141171600Y-121293400D02*
X123031600Y-121293400D01*
X135721600Y-121293400D02*
X135721600Y-128293400D01*
X128481600Y-121293400D02*
X128481600Y-128293400D01*
X135721600Y-121293400D02*
X128481600Y-121293400D01*
X135721600Y-128293400D02*
X128481600Y-128293400D01*
X135221600Y-128293400D02*
X135221600Y-138293400D01*
X128980600Y-128293400D02*
X128980600Y-138293400D01*
X135221600Y-128293400D02*
X128980600Y-128293400D01*
X135221600Y-138293400D02*
X128980600Y-138293400D01*
X113563400Y-91837200D02*
X114893400Y-91837200D01*
X114893400Y-91837200D02*
X114893400Y-93167200D01*
X114893400Y-94437200D02*
X114893400Y-97037200D01*
X112233400Y-97037200D02*
X114893400Y-97037200D01*
X112233400Y-94437200D02*
X112233400Y-97037200D01*
X112233400Y-94437200D02*
X114893400Y-94437200D01*
X112258800Y-83794600D02*
X114918800Y-83794600D01*
X112258800Y-83794600D02*
X112258800Y-86394600D01*
X112258800Y-86394600D02*
X114918800Y-86394600D01*
X114918800Y-83794600D02*
X114918800Y-86394600D01*
X114918800Y-81194600D02*
X114918800Y-82524600D01*
X113588800Y-81194600D02*
X114918800Y-81194600D01*
X130800800Y-94462600D02*
X133460800Y-94462600D01*
X130800800Y-94462600D02*
X130800800Y-97062600D01*
X130800800Y-97062600D02*
X133460800Y-97062600D01*
X133460800Y-94462600D02*
X133460800Y-97062600D01*
X133460800Y-91862600D02*
X133460800Y-93192600D01*
X132130800Y-91862600D02*
X133460800Y-91862600D01*
X132080000Y-81220000D02*
X133410000Y-81220000D01*
X133410000Y-81220000D02*
X133410000Y-82550000D01*
X133410000Y-83820000D02*
X133410000Y-86420000D01*
X130750000Y-86420000D02*
X133410000Y-86420000D01*
X130750000Y-83820000D02*
X130750000Y-86420000D01*
X130750000Y-83820000D02*
X133410000Y-83820000D01*
X163382000Y-92659200D02*
X163382000Y-93989200D01*
X163382000Y-93989200D02*
X162052000Y-93989200D01*
X160782000Y-93989200D02*
X158182000Y-93989200D01*
X158182000Y-91329200D02*
X158182000Y-93989200D01*
X160782000Y-91329200D02*
X158182000Y-91329200D01*
X160782000Y-91329200D02*
X160782000Y-93989200D01*
X148234400Y-91329200D02*
X148234400Y-93989200D01*
X148234400Y-91329200D02*
X145634400Y-91329200D01*
X145634400Y-91329200D02*
X145634400Y-93989200D01*
X148234400Y-93989200D02*
X145634400Y-93989200D01*
X150834400Y-93989200D02*
X149504400Y-93989200D01*
X150834400Y-92659200D02*
X150834400Y-93989200D01*
X160807400Y-96231400D02*
X160807400Y-98891400D01*
X160807400Y-96231400D02*
X158207400Y-96231400D01*
X158207400Y-96231400D02*
X158207400Y-98891400D01*
X160807400Y-98891400D02*
X158207400Y-98891400D01*
X163407400Y-98891400D02*
X162077400Y-98891400D01*
X163407400Y-97561400D02*
X163407400Y-98891400D01*
X150834400Y-97561400D02*
X150834400Y-98891400D01*
X150834400Y-98891400D02*
X149504400Y-98891400D01*
X148234400Y-98891400D02*
X145634400Y-98891400D01*
X145634400Y-96231400D02*
X145634400Y-98891400D01*
X148234400Y-96231400D02*
X145634400Y-96231400D01*
X148234400Y-96231400D02*
X148234400Y-98891400D01*
X163382000Y-115544600D02*
X163382000Y-116874600D01*
X163382000Y-116874600D02*
X162052000Y-116874600D01*
X160782000Y-116874600D02*
X158182000Y-116874600D01*
X158182000Y-114214600D02*
X158182000Y-116874600D01*
X160782000Y-114214600D02*
X158182000Y-114214600D01*
X160782000Y-114214600D02*
X160782000Y-116874600D01*
X171170600Y-118685000D02*
X171170600Y-121345000D01*
X171170600Y-118685000D02*
X155870600Y-118685000D01*
X155870600Y-118685000D02*
X155870600Y-121345000D01*
X171170600Y-121345000D02*
X155870600Y-121345000D01*
X173770600Y-121345000D02*
X172440600Y-121345000D01*
X173770600Y-120015000D02*
X173770600Y-121345000D01*
X148234400Y-114240000D02*
X148234400Y-116900000D01*
X148234400Y-114240000D02*
X143094400Y-114240000D01*
X143094400Y-114240000D02*
X143094400Y-116900000D01*
X148234400Y-116900000D02*
X143094400Y-116900000D01*
X150834400Y-116900000D02*
X149504400Y-116900000D01*
X150834400Y-115570000D02*
X150834400Y-116900000D01*
D10*
X116840000Y-77063600D02*
X117221000Y-76403200D01*
X118110000Y-75692000D02*
X118084600Y-75692000D01*
X118516400Y-75666600D02*
X118110000Y-75692000D01*
X118795800Y-75361800D02*
X118516400Y-75666600D01*
X119049800Y-75615800D02*
X118795800Y-75361800D01*
X118795800Y-76174600D02*
X119049800Y-75615800D01*
X118516400Y-76149200D02*
X118795800Y-76174600D01*
X118414800Y-77647800D02*
X118211600Y-77393800D01*
X118745000Y-78003400D02*
X118440200Y-77647800D01*
X118643400Y-77673200D02*
X118745000Y-78003400D01*
X119608600Y-76885800D02*
X118643400Y-77673200D01*
X119583200Y-76504800D02*
X119608600Y-76885800D01*
X118719600Y-76225400D02*
X119583200Y-76504800D01*
X119126000Y-75793600D02*
X118719600Y-76225400D01*
X119837200Y-76657200D02*
X119126000Y-75793600D01*
X120446800Y-76606400D02*
X119837200Y-76657200D01*
X120675400Y-75895200D02*
X120446800Y-76606400D01*
X120599200Y-75717400D02*
X120675400Y-75895200D01*
X120446800Y-75488800D02*
X120599200Y-75717400D01*
X119049800Y-74803000D02*
X120446800Y-75488800D01*
X119481600Y-74574400D02*
X119049800Y-74803000D01*
X120573800Y-75488800D02*
X119481600Y-74574400D01*
X122351800Y-74701400D02*
X120573800Y-75488800D01*
X121335800Y-74803000D02*
X122351800Y-74701400D01*
X121107200Y-74853800D02*
X121335800Y-74803000D01*
X120878600Y-74726800D02*
X121107200Y-74853800D01*
X120700800Y-74752200D02*
X120878600Y-74726800D01*
X120294400Y-75057000D02*
X120700800Y-74752200D01*
X120116600Y-75057000D02*
X120294400Y-75057000D01*
X120015000Y-74930000D02*
X120116600Y-75082400D01*
X120446800Y-74371200D02*
X120015000Y-74930000D01*
X120167400Y-73812400D02*
X120446800Y-74371200D01*
X121005600Y-74142600D02*
X120167400Y-73812400D01*
X121132600Y-74472800D02*
X121005600Y-74142600D01*
X122656600Y-74422000D02*
X121132600Y-74472800D01*
X122758200Y-74193400D02*
X122656600Y-74422000D01*
X123088400Y-74599800D02*
X122758200Y-74193400D01*
X121107200Y-75488800D02*
X123088400Y-74599800D01*
X122631200Y-75133200D02*
X121107200Y-75488800D01*
X122859800Y-75488800D02*
X122631200Y-75133200D01*
X122682000Y-76454000D02*
X122859800Y-75488800D01*
X123317000Y-76174600D02*
X122682000Y-76454000D01*
X123113800Y-76987400D02*
X123317000Y-76174600D01*
X122656600Y-76987400D02*
X123113800Y-76987400D01*
X122097800Y-78511400D02*
X122631200Y-77012800D01*
X121488200Y-78206600D02*
X122097800Y-78511400D01*
X121920000Y-78155800D02*
X121488200Y-78206600D01*
X122301000Y-76987400D02*
X121920000Y-78155800D01*
X122428000Y-75692000D02*
X122301000Y-76987400D01*
X121310400Y-75717400D02*
X122428000Y-75692000D01*
X121234200Y-75920600D02*
X121310400Y-75717400D01*
X121793000Y-76225400D02*
X121234200Y-75920600D01*
X121259600Y-76377800D02*
X121793000Y-76225400D01*
X121005600Y-76174600D02*
X121259600Y-76377800D01*
X120878600Y-76682600D02*
X121005600Y-76174600D01*
X122199400Y-76504800D02*
X120878600Y-76682600D01*
X122174000Y-77012800D02*
X122199400Y-76504800D01*
X121793000Y-77038200D02*
X122199400Y-76987400D01*
X120904000Y-77139800D02*
X121793000Y-77038200D01*
X121335800Y-77419200D02*
X120904000Y-77139800D01*
X120929400Y-77495400D02*
X121335800Y-77419200D01*
X120726200Y-77343000D02*
X120929400Y-77495400D01*
X120650000Y-77622400D02*
X120726200Y-77368400D01*
X121437400Y-77622400D02*
X120650000Y-77622400D01*
X121666000Y-77393800D02*
X121437400Y-77622400D01*
X121894600Y-77851000D02*
X121666000Y-77393800D01*
X120167400Y-78181200D02*
X121894600Y-77851000D01*
X119938800Y-77774800D02*
X120167400Y-78181200D01*
X120421400Y-77241400D02*
X119938800Y-77774800D01*
X119888000Y-77368400D02*
X120446800Y-77216000D01*
X119481600Y-77216000D02*
X119888000Y-77368400D01*
X119024400Y-78079600D02*
X119481600Y-77216000D01*
X119354600Y-78308200D02*
X119024400Y-78079600D01*
X118237000Y-78257400D02*
X119354600Y-78308200D01*
X117094000Y-75260200D02*
X117068600Y-75717400D01*
X117068600Y-74015600D02*
X117094000Y-75260200D01*
X117856000Y-74853800D02*
X117094000Y-73990200D01*
X117602000Y-75082400D02*
X117703600Y-74828400D01*
X117576600Y-75717400D02*
X117602000Y-75082400D01*
X118186200Y-75666600D02*
X117576600Y-75717400D01*
X117576600Y-76149200D02*
X118414800Y-76123800D01*
X118160800Y-77343000D02*
X117576600Y-76149200D01*
X117754400Y-77495400D02*
X118237000Y-78232000D01*
X117246400Y-76377800D02*
X117754400Y-77495400D01*
X116255800Y-77673200D02*
X116865400Y-77063600D01*
X115062000Y-78308200D02*
X116255800Y-77673200D01*
X115722400Y-77698600D02*
X115062000Y-78308200D01*
X116687600Y-76758800D02*
X115722400Y-77698600D01*
X117043200Y-76098400D02*
X116738400Y-76708000D01*
X115951000Y-76123800D02*
X117043200Y-76098400D01*
X115671600Y-76276200D02*
X115951000Y-76123800D01*
X115265200Y-75869800D02*
X115671600Y-76276200D01*
X115519200Y-75768200D02*
X115265200Y-75869800D01*
X117068600Y-75742800D02*
X115519200Y-75768200D01*
X147089904Y-121737380D02*
X147089904Y-120737380D01*
X147470857Y-120737380D01*
X147566095Y-120785000D01*
X147613714Y-120832619D01*
X147661333Y-120927857D01*
X147661333Y-121070714D01*
X147613714Y-121165952D01*
X147566095Y-121213571D01*
X147470857Y-121261190D01*
X147089904Y-121261190D01*
X148613714Y-121737380D02*
X148042285Y-121737380D01*
X148328000Y-121737380D02*
X148328000Y-120737380D01*
X148232761Y-120880238D01*
X148137523Y-120975476D01*
X148042285Y-121023095D01*
X167663904Y-121737380D02*
X167663904Y-120737380D01*
X168044857Y-120737380D01*
X168140095Y-120785000D01*
X168187714Y-120832619D01*
X168235333Y-120927857D01*
X168235333Y-121070714D01*
X168187714Y-121165952D01*
X168140095Y-121213571D01*
X168044857Y-121261190D01*
X167663904Y-121261190D01*
X168616285Y-120832619D02*
X168663904Y-120785000D01*
X168759142Y-120737380D01*
X168997238Y-120737380D01*
X169092476Y-120785000D01*
X169140095Y-120832619D01*
X169187714Y-120927857D01*
X169187714Y-121023095D01*
X169140095Y-121165952D01*
X168568666Y-121737380D01*
X169187714Y-121737380D01*
X140485904Y-78811380D02*
X140485904Y-77811380D01*
X140866857Y-77811380D01*
X140962095Y-77859000D01*
X141009714Y-77906619D01*
X141057333Y-78001857D01*
X141057333Y-78144714D01*
X141009714Y-78239952D01*
X140962095Y-78287571D01*
X140866857Y-78335190D01*
X140485904Y-78335190D01*
X141390666Y-77811380D02*
X142009714Y-77811380D01*
X141676380Y-78192333D01*
X141819238Y-78192333D01*
X141914476Y-78239952D01*
X141962095Y-78287571D01*
X142009714Y-78382809D01*
X142009714Y-78620904D01*
X141962095Y-78716142D01*
X141914476Y-78763761D01*
X141819238Y-78811380D01*
X141533523Y-78811380D01*
X141438285Y-78763761D01*
X141390666Y-78716142D01*
X164869904Y-78811380D02*
X164869904Y-77811380D01*
X165250857Y-77811380D01*
X165346095Y-77859000D01*
X165393714Y-77906619D01*
X165441333Y-78001857D01*
X165441333Y-78144714D01*
X165393714Y-78239952D01*
X165346095Y-78287571D01*
X165250857Y-78335190D01*
X164869904Y-78335190D01*
X166298476Y-78144714D02*
X166298476Y-78811380D01*
X166060380Y-77763761D02*
X165822285Y-78478047D01*
X166441333Y-78478047D01*
X121180266Y-110526580D02*
X121180266Y-111240866D01*
X121132647Y-111383723D01*
X121037409Y-111478961D01*
X120894552Y-111526580D01*
X120799314Y-111526580D01*
X122180266Y-111526580D02*
X121608838Y-111526580D01*
X121894552Y-111526580D02*
X121894552Y-110526580D01*
X121799314Y-110669438D01*
X121704076Y-110764676D01*
X121608838Y-110812295D01*
X112188952Y-114295180D02*
X112379428Y-114295180D01*
X112474666Y-114247561D01*
X112522285Y-114199942D01*
X112617523Y-114057085D01*
X112665142Y-113866609D01*
X112665142Y-113485657D01*
X112617523Y-113390419D01*
X112569904Y-113342800D01*
X112474666Y-113295180D01*
X112284190Y-113295180D01*
X112188952Y-113342800D01*
X112141333Y-113390419D01*
X112093714Y-113485657D01*
X112093714Y-113723752D01*
X112141333Y-113818990D01*
X112188952Y-113866609D01*
X112284190Y-113914228D01*
X112474666Y-113914228D01*
X112569904Y-113866609D01*
X112617523Y-113818990D01*
X112665142Y-113723752D01*
X112950857Y-113295180D02*
X113284190Y-114295180D01*
X113617523Y-113295180D01*
X113950857Y-113914228D02*
X114712761Y-113914228D01*
X115712761Y-114295180D02*
X115141333Y-114295180D01*
X115427047Y-114295180D02*
X115427047Y-113295180D01*
X115331809Y-113438038D01*
X115236571Y-113533276D01*
X115141333Y-113580895D01*
X116093714Y-113390419D02*
X116141333Y-113342800D01*
X116236571Y-113295180D01*
X116474666Y-113295180D01*
X116569904Y-113342800D01*
X116617523Y-113390419D01*
X116665142Y-113485657D01*
X116665142Y-113580895D01*
X116617523Y-113723752D01*
X116046095Y-114295180D01*
X116665142Y-114295180D01*
X116950857Y-113295180D02*
X117284190Y-114295180D01*
X117617523Y-113295180D01*
X166018266Y-112253780D02*
X166018266Y-112968066D01*
X165970647Y-113110923D01*
X165875409Y-113206161D01*
X165732552Y-113253780D01*
X165637314Y-113253780D01*
X166446838Y-112349019D02*
X166494457Y-112301400D01*
X166589695Y-112253780D01*
X166827790Y-112253780D01*
X166923028Y-112301400D01*
X166970647Y-112349019D01*
X167018266Y-112444257D01*
X167018266Y-112539495D01*
X166970647Y-112682352D01*
X166399219Y-113253780D01*
X167018266Y-113253780D01*
X173498238Y-98667866D02*
X173974428Y-98667866D01*
X173403000Y-98953580D02*
X173736333Y-97953580D01*
X174069666Y-98953580D01*
X174831571Y-98286914D02*
X174831571Y-98953580D01*
X174403000Y-98286914D02*
X174403000Y-98810723D01*
X174450619Y-98905961D01*
X174545857Y-98953580D01*
X174688714Y-98953580D01*
X174783952Y-98905961D01*
X174831571Y-98858342D01*
X175736333Y-98953580D02*
X175736333Y-97953580D01*
X175736333Y-98905961D02*
X175641095Y-98953580D01*
X175450619Y-98953580D01*
X175355380Y-98905961D01*
X175307761Y-98858342D01*
X175260142Y-98763104D01*
X175260142Y-98477390D01*
X175307761Y-98382152D01*
X175355380Y-98334533D01*
X175450619Y-98286914D01*
X175641095Y-98286914D01*
X175736333Y-98334533D01*
X176212523Y-98953580D02*
X176212523Y-98286914D01*
X176212523Y-97953580D02*
X176164904Y-98001200D01*
X176212523Y-98048819D01*
X176260142Y-98001200D01*
X176212523Y-97953580D01*
X176212523Y-98048819D01*
X176831571Y-98953580D02*
X176736333Y-98905961D01*
X176688714Y-98858342D01*
X176641095Y-98763104D01*
X176641095Y-98477390D01*
X176688714Y-98382152D01*
X176736333Y-98334533D01*
X176831571Y-98286914D01*
X176974428Y-98286914D01*
X177069666Y-98334533D01*
X177117285Y-98382152D01*
X177164904Y-98477390D01*
X177164904Y-98763104D01*
X177117285Y-98858342D01*
X177069666Y-98905961D01*
X176974428Y-98953580D01*
X176831571Y-98953580D01*
X178355380Y-98953580D02*
X178355380Y-97953580D01*
X178831571Y-98286914D02*
X178831571Y-98953580D01*
X178831571Y-98382152D02*
X178879190Y-98334533D01*
X178974428Y-98286914D01*
X179117285Y-98286914D01*
X179212523Y-98334533D01*
X179260142Y-98429771D01*
X179260142Y-98953580D01*
X138376066Y-78808780D02*
X138376066Y-79523066D01*
X138328447Y-79665923D01*
X138233209Y-79761161D01*
X138090352Y-79808780D01*
X137995114Y-79808780D01*
X138757019Y-78808780D02*
X139376066Y-78808780D01*
X139042733Y-79189733D01*
X139185590Y-79189733D01*
X139280828Y-79237352D01*
X139328447Y-79284971D01*
X139376066Y-79380209D01*
X139376066Y-79618304D01*
X139328447Y-79713542D01*
X139280828Y-79761161D01*
X139185590Y-79808780D01*
X138899876Y-79808780D01*
X138804638Y-79761161D01*
X138757019Y-79713542D01*
X143456066Y-78808780D02*
X143456066Y-79523066D01*
X143408447Y-79665923D01*
X143313209Y-79761161D01*
X143170352Y-79808780D01*
X143075114Y-79808780D01*
X144360828Y-79142114D02*
X144360828Y-79808780D01*
X144122733Y-78761161D02*
X143884638Y-79475447D01*
X144503685Y-79475447D01*
X148536066Y-78808780D02*
X148536066Y-79523066D01*
X148488447Y-79665923D01*
X148393209Y-79761161D01*
X148250352Y-79808780D01*
X148155114Y-79808780D01*
X149488447Y-78808780D02*
X149012257Y-78808780D01*
X148964638Y-79284971D01*
X149012257Y-79237352D01*
X149107495Y-79189733D01*
X149345590Y-79189733D01*
X149440828Y-79237352D01*
X149488447Y-79284971D01*
X149536066Y-79380209D01*
X149536066Y-79618304D01*
X149488447Y-79713542D01*
X149440828Y-79761161D01*
X149345590Y-79808780D01*
X149107495Y-79808780D01*
X149012257Y-79761161D01*
X148964638Y-79713542D01*
X153616066Y-78808780D02*
X153616066Y-79523066D01*
X153568447Y-79665923D01*
X153473209Y-79761161D01*
X153330352Y-79808780D01*
X153235114Y-79808780D01*
X154520828Y-78808780D02*
X154330352Y-78808780D01*
X154235114Y-78856400D01*
X154187495Y-78904019D01*
X154092257Y-79046876D01*
X154044638Y-79237352D01*
X154044638Y-79618304D01*
X154092257Y-79713542D01*
X154139876Y-79761161D01*
X154235114Y-79808780D01*
X154425590Y-79808780D01*
X154520828Y-79761161D01*
X154568447Y-79713542D01*
X154616066Y-79618304D01*
X154616066Y-79380209D01*
X154568447Y-79284971D01*
X154520828Y-79237352D01*
X154425590Y-79189733D01*
X154235114Y-79189733D01*
X154139876Y-79237352D01*
X154092257Y-79284971D01*
X154044638Y-79380209D01*
X158696066Y-78808780D02*
X158696066Y-79523066D01*
X158648447Y-79665923D01*
X158553209Y-79761161D01*
X158410352Y-79808780D01*
X158315114Y-79808780D01*
X159077019Y-78808780D02*
X159743685Y-78808780D01*
X159315114Y-79808780D01*
X163776066Y-78808780D02*
X163776066Y-79523066D01*
X163728447Y-79665923D01*
X163633209Y-79761161D01*
X163490352Y-79808780D01*
X163395114Y-79808780D01*
X164395114Y-79237352D02*
X164299876Y-79189733D01*
X164252257Y-79142114D01*
X164204638Y-79046876D01*
X164204638Y-78999257D01*
X164252257Y-78904019D01*
X164299876Y-78856400D01*
X164395114Y-78808780D01*
X164585590Y-78808780D01*
X164680828Y-78856400D01*
X164728447Y-78904019D01*
X164776066Y-78999257D01*
X164776066Y-79046876D01*
X164728447Y-79142114D01*
X164680828Y-79189733D01*
X164585590Y-79237352D01*
X164395114Y-79237352D01*
X164299876Y-79284971D01*
X164252257Y-79332590D01*
X164204638Y-79427828D01*
X164204638Y-79618304D01*
X164252257Y-79713542D01*
X164299876Y-79761161D01*
X164395114Y-79808780D01*
X164585590Y-79808780D01*
X164680828Y-79761161D01*
X164728447Y-79713542D01*
X164776066Y-79618304D01*
X164776066Y-79427828D01*
X164728447Y-79332590D01*
X164680828Y-79284971D01*
X164585590Y-79237352D01*
X168856066Y-78808780D02*
X168856066Y-79523066D01*
X168808447Y-79665923D01*
X168713209Y-79761161D01*
X168570352Y-79808780D01*
X168475114Y-79808780D01*
X169379876Y-79808780D02*
X169570352Y-79808780D01*
X169665590Y-79761161D01*
X169713209Y-79713542D01*
X169808447Y-79570685D01*
X169856066Y-79380209D01*
X169856066Y-78999257D01*
X169808447Y-78904019D01*
X169760828Y-78856400D01*
X169665590Y-78808780D01*
X169475114Y-78808780D01*
X169379876Y-78856400D01*
X169332257Y-78904019D01*
X169284638Y-78999257D01*
X169284638Y-79237352D01*
X169332257Y-79332590D01*
X169379876Y-79380209D01*
X169475114Y-79427828D01*
X169665590Y-79427828D01*
X169760828Y-79380209D01*
X169808447Y-79332590D01*
X169856066Y-79237352D01*
X173459876Y-78808780D02*
X173459876Y-79523066D01*
X173412257Y-79665923D01*
X173317019Y-79761161D01*
X173174161Y-79808780D01*
X173078923Y-79808780D01*
X174459876Y-79808780D02*
X173888447Y-79808780D01*
X174174161Y-79808780D02*
X174174161Y-78808780D01*
X174078923Y-78951638D01*
X173983685Y-79046876D01*
X173888447Y-79094495D01*
X175078923Y-78808780D02*
X175174161Y-78808780D01*
X175269400Y-78856400D01*
X175317019Y-78904019D01*
X175364638Y-78999257D01*
X175412257Y-79189733D01*
X175412257Y-79427828D01*
X175364638Y-79618304D01*
X175317019Y-79713542D01*
X175269400Y-79761161D01*
X175174161Y-79808780D01*
X175078923Y-79808780D01*
X174983685Y-79761161D01*
X174936066Y-79713542D01*
X174888447Y-79618304D01*
X174840828Y-79427828D01*
X174840828Y-79189733D01*
X174888447Y-78999257D01*
X174936066Y-78904019D01*
X174983685Y-78856400D01*
X175078923Y-78808780D01*
X148664704Y-120365780D02*
X148664704Y-119365780D01*
X148902800Y-119365780D01*
X149045657Y-119413400D01*
X149140895Y-119508638D01*
X149188514Y-119603876D01*
X149236133Y-119794352D01*
X149236133Y-119937209D01*
X149188514Y-120127685D01*
X149140895Y-120222923D01*
X149045657Y-120318161D01*
X148902800Y-120365780D01*
X148664704Y-120365780D01*
X150188514Y-120365780D02*
X149617085Y-120365780D01*
X149902800Y-120365780D02*
X149902800Y-119365780D01*
X149807561Y-119508638D01*
X149712323Y-119603876D01*
X149617085Y-119651495D01*
X166212733Y-93068342D02*
X166165114Y-93115961D01*
X166022257Y-93163580D01*
X165927019Y-93163580D01*
X165784161Y-93115961D01*
X165688923Y-93020723D01*
X165641304Y-92925485D01*
X165593685Y-92735009D01*
X165593685Y-92592152D01*
X165641304Y-92401676D01*
X165688923Y-92306438D01*
X165784161Y-92211200D01*
X165927019Y-92163580D01*
X166022257Y-92163580D01*
X166165114Y-92211200D01*
X166212733Y-92258819D01*
X167165114Y-93163580D02*
X166593685Y-93163580D01*
X166879400Y-93163580D02*
X166879400Y-92163580D01*
X166784161Y-92306438D01*
X166688923Y-92401676D01*
X166593685Y-92449295D01*
X171165733Y-93068342D02*
X171118114Y-93115961D01*
X170975257Y-93163580D01*
X170880019Y-93163580D01*
X170737161Y-93115961D01*
X170641923Y-93020723D01*
X170594304Y-92925485D01*
X170546685Y-92735009D01*
X170546685Y-92592152D01*
X170594304Y-92401676D01*
X170641923Y-92306438D01*
X170737161Y-92211200D01*
X170880019Y-92163580D01*
X170975257Y-92163580D01*
X171118114Y-92211200D01*
X171165733Y-92258819D01*
X171546685Y-92258819D02*
X171594304Y-92211200D01*
X171689542Y-92163580D01*
X171927638Y-92163580D01*
X172022876Y-92211200D01*
X172070495Y-92258819D01*
X172118114Y-92354057D01*
X172118114Y-92449295D01*
X172070495Y-92592152D01*
X171499066Y-93163580D01*
X172118114Y-93163580D01*
X176668133Y-114453942D02*
X176620514Y-114501561D01*
X176477657Y-114549180D01*
X176382419Y-114549180D01*
X176239561Y-114501561D01*
X176144323Y-114406323D01*
X176096704Y-114311085D01*
X176049085Y-114120609D01*
X176049085Y-113977752D01*
X176096704Y-113787276D01*
X176144323Y-113692038D01*
X176239561Y-113596800D01*
X176382419Y-113549180D01*
X176477657Y-113549180D01*
X176620514Y-113596800D01*
X176668133Y-113644419D01*
X177001466Y-113549180D02*
X177620514Y-113549180D01*
X177287180Y-113930133D01*
X177430038Y-113930133D01*
X177525276Y-113977752D01*
X177572895Y-114025371D01*
X177620514Y-114120609D01*
X177620514Y-114358704D01*
X177572895Y-114453942D01*
X177525276Y-114501561D01*
X177430038Y-114549180D01*
X177144323Y-114549180D01*
X177049085Y-114501561D01*
X177001466Y-114453942D01*
X141325942Y-95578466D02*
X141373561Y-95626085D01*
X141421180Y-95768942D01*
X141421180Y-95864180D01*
X141373561Y-96007038D01*
X141278323Y-96102276D01*
X141183085Y-96149895D01*
X140992609Y-96197514D01*
X140849752Y-96197514D01*
X140659276Y-96149895D01*
X140564038Y-96102276D01*
X140468800Y-96007038D01*
X140421180Y-95864180D01*
X140421180Y-95768942D01*
X140468800Y-95626085D01*
X140516419Y-95578466D01*
X140754514Y-94721323D02*
X141421180Y-94721323D01*
X140373561Y-94959419D02*
X141087847Y-95197514D01*
X141087847Y-94578466D01*
X136172142Y-106126066D02*
X136219761Y-106173685D01*
X136267380Y-106316542D01*
X136267380Y-106411780D01*
X136219761Y-106554638D01*
X136124523Y-106649876D01*
X136029285Y-106697495D01*
X135838809Y-106745114D01*
X135695952Y-106745114D01*
X135505476Y-106697495D01*
X135410238Y-106649876D01*
X135315000Y-106554638D01*
X135267380Y-106411780D01*
X135267380Y-106316542D01*
X135315000Y-106173685D01*
X135362619Y-106126066D01*
X135267380Y-105221304D02*
X135267380Y-105697495D01*
X135743571Y-105745114D01*
X135695952Y-105697495D01*
X135648333Y-105602257D01*
X135648333Y-105364161D01*
X135695952Y-105268923D01*
X135743571Y-105221304D01*
X135838809Y-105173685D01*
X136076904Y-105173685D01*
X136172142Y-105221304D01*
X136219761Y-105268923D01*
X136267380Y-105364161D01*
X136267380Y-105602257D01*
X136219761Y-105697495D01*
X136172142Y-105745114D01*
X121070761Y-116733580D02*
X120737428Y-116257390D01*
X120499333Y-116733580D02*
X120499333Y-115733580D01*
X120880285Y-115733580D01*
X120975523Y-115781200D01*
X121023142Y-115828819D01*
X121070761Y-115924057D01*
X121070761Y-116066914D01*
X121023142Y-116162152D01*
X120975523Y-116209771D01*
X120880285Y-116257390D01*
X120499333Y-116257390D01*
X121356476Y-115733580D02*
X121689809Y-116733580D01*
X122023142Y-115733580D01*
X122880285Y-116733580D02*
X122308857Y-116733580D01*
X122594571Y-116733580D02*
X122594571Y-115733580D01*
X122499333Y-115876438D01*
X122404095Y-115971676D01*
X122308857Y-116019295D01*
X112564990Y-98258380D02*
X112898323Y-99258380D01*
X113231657Y-98258380D01*
X113564990Y-99258380D02*
X113564990Y-98591714D01*
X113564990Y-98258380D02*
X113517371Y-98306000D01*
X113564990Y-98353619D01*
X113612609Y-98306000D01*
X113564990Y-98258380D01*
X113564990Y-98353619D01*
X114041180Y-98591714D02*
X114041180Y-99258380D01*
X114041180Y-98686952D02*
X114088800Y-98639333D01*
X114184038Y-98591714D01*
X114326895Y-98591714D01*
X114422133Y-98639333D01*
X114469752Y-98734571D01*
X114469752Y-99258380D01*
X112953895Y-78697200D02*
X112858657Y-78649580D01*
X112715800Y-78649580D01*
X112572942Y-78697200D01*
X112477704Y-78792438D01*
X112430085Y-78887676D01*
X112382466Y-79078152D01*
X112382466Y-79221009D01*
X112430085Y-79411485D01*
X112477704Y-79506723D01*
X112572942Y-79601961D01*
X112715800Y-79649580D01*
X112811038Y-79649580D01*
X112953895Y-79601961D01*
X113001514Y-79554342D01*
X113001514Y-79221009D01*
X112811038Y-79221009D01*
X113430085Y-79649580D02*
X113430085Y-78649580D01*
X114001514Y-79649580D01*
X114001514Y-78649580D01*
X114477704Y-79649580D02*
X114477704Y-78649580D01*
X114715800Y-78649580D01*
X114858657Y-78697200D01*
X114953895Y-78792438D01*
X115001514Y-78887676D01*
X115049133Y-79078152D01*
X115049133Y-79221009D01*
X115001514Y-79411485D01*
X114953895Y-79506723D01*
X114858657Y-79601961D01*
X114715800Y-79649580D01*
X114477704Y-79649580D01*
X130845085Y-98928228D02*
X131606990Y-98928228D01*
X131226038Y-99309180D02*
X131226038Y-98547276D01*
X132559371Y-98309180D02*
X132083180Y-98309180D01*
X132035561Y-98785371D01*
X132083180Y-98737752D01*
X132178419Y-98690133D01*
X132416514Y-98690133D01*
X132511752Y-98737752D01*
X132559371Y-98785371D01*
X132606990Y-98880609D01*
X132606990Y-99118704D01*
X132559371Y-99213942D01*
X132511752Y-99261561D01*
X132416514Y-99309180D01*
X132178419Y-99309180D01*
X132083180Y-99261561D01*
X132035561Y-99213942D01*
X132892704Y-98309180D02*
X133226038Y-99309180D01*
X133559371Y-98309180D01*
X131114895Y-78621000D02*
X131019657Y-78573380D01*
X130876800Y-78573380D01*
X130733942Y-78621000D01*
X130638704Y-78716238D01*
X130591085Y-78811476D01*
X130543466Y-79001952D01*
X130543466Y-79144809D01*
X130591085Y-79335285D01*
X130638704Y-79430523D01*
X130733942Y-79525761D01*
X130876800Y-79573380D01*
X130972038Y-79573380D01*
X131114895Y-79525761D01*
X131162514Y-79478142D01*
X131162514Y-79144809D01*
X130972038Y-79144809D01*
X131591085Y-79573380D02*
X131591085Y-78573380D01*
X132162514Y-79573380D01*
X132162514Y-78573380D01*
X132638704Y-79573380D02*
X132638704Y-78573380D01*
X132876800Y-78573380D01*
X133019657Y-78621000D01*
X133114895Y-78716238D01*
X133162514Y-78811476D01*
X133210133Y-79001952D01*
X133210133Y-79144809D01*
X133162514Y-79335285D01*
X133114895Y-79430523D01*
X133019657Y-79525761D01*
X132876800Y-79573380D01*
X132638704Y-79573380D01*
X156791447Y-95499180D02*
X156458114Y-95022990D01*
X156220019Y-95499180D02*
X156220019Y-94499180D01*
X156600971Y-94499180D01*
X156696209Y-94546800D01*
X156743828Y-94594419D01*
X156791447Y-94689657D01*
X156791447Y-94832514D01*
X156743828Y-94927752D01*
X156696209Y-94975371D01*
X156600971Y-95022990D01*
X156220019Y-95022990D01*
X156981923Y-95594419D02*
X157743828Y-95594419D01*
X157934304Y-95451561D02*
X158077161Y-95499180D01*
X158315257Y-95499180D01*
X158410495Y-95451561D01*
X158458114Y-95403942D01*
X158505733Y-95308704D01*
X158505733Y-95213466D01*
X158458114Y-95118228D01*
X158410495Y-95070609D01*
X158315257Y-95022990D01*
X158124780Y-94975371D01*
X158029542Y-94927752D01*
X157981923Y-94880133D01*
X157934304Y-94784895D01*
X157934304Y-94689657D01*
X157981923Y-94594419D01*
X158029542Y-94546800D01*
X158124780Y-94499180D01*
X158362876Y-94499180D01*
X158505733Y-94546800D01*
X158934304Y-95499180D02*
X158934304Y-94499180D01*
X159315257Y-94499180D01*
X159410495Y-94546800D01*
X159458114Y-94594419D01*
X159505733Y-94689657D01*
X159505733Y-94832514D01*
X159458114Y-94927752D01*
X159410495Y-94975371D01*
X159315257Y-95022990D01*
X158934304Y-95022990D01*
X159934304Y-94975371D02*
X160267638Y-94975371D01*
X160410495Y-95499180D02*
X159934304Y-95499180D01*
X159934304Y-94499180D01*
X160410495Y-94499180D01*
X160791447Y-95213466D02*
X161267638Y-95213466D01*
X160696209Y-95499180D02*
X161029542Y-94499180D01*
X161362876Y-95499180D01*
X161696209Y-95499180D02*
X161696209Y-94499180D01*
X162267638Y-95499180D02*
X161839066Y-94927752D01*
X162267638Y-94499180D02*
X161696209Y-95070609D01*
X162696209Y-94975371D02*
X163029542Y-94975371D01*
X163172400Y-95499180D02*
X162696209Y-95499180D01*
X162696209Y-94499180D01*
X163172400Y-94499180D01*
X164172400Y-95499180D02*
X163839066Y-95022990D01*
X163600971Y-95499180D02*
X163600971Y-94499180D01*
X163981923Y-94499180D01*
X164077161Y-94546800D01*
X164124780Y-94594419D01*
X164172400Y-94689657D01*
X164172400Y-94832514D01*
X164124780Y-94927752D01*
X164077161Y-94975371D01*
X163981923Y-95022990D01*
X163600971Y-95022990D01*
X144345447Y-95549980D02*
X143869257Y-95549980D01*
X143869257Y-94549980D01*
X144440685Y-95645219D02*
X145202590Y-95645219D01*
X145393066Y-95502361D02*
X145535923Y-95549980D01*
X145774019Y-95549980D01*
X145869257Y-95502361D01*
X145916876Y-95454742D01*
X145964495Y-95359504D01*
X145964495Y-95264266D01*
X145916876Y-95169028D01*
X145869257Y-95121409D01*
X145774019Y-95073790D01*
X145583542Y-95026171D01*
X145488304Y-94978552D01*
X145440685Y-94930933D01*
X145393066Y-94835695D01*
X145393066Y-94740457D01*
X145440685Y-94645219D01*
X145488304Y-94597600D01*
X145583542Y-94549980D01*
X145821638Y-94549980D01*
X145964495Y-94597600D01*
X146393066Y-95549980D02*
X146393066Y-94549980D01*
X146774019Y-94549980D01*
X146869257Y-94597600D01*
X146916876Y-94645219D01*
X146964495Y-94740457D01*
X146964495Y-94883314D01*
X146916876Y-94978552D01*
X146869257Y-95026171D01*
X146774019Y-95073790D01*
X146393066Y-95073790D01*
X147393066Y-95026171D02*
X147726400Y-95026171D01*
X147869257Y-95549980D02*
X147393066Y-95549980D01*
X147393066Y-94549980D01*
X147869257Y-94549980D01*
X148250209Y-95264266D02*
X148726400Y-95264266D01*
X148154971Y-95549980D02*
X148488304Y-94549980D01*
X148821638Y-95549980D01*
X149154971Y-95549980D02*
X149154971Y-94549980D01*
X149726400Y-95549980D02*
X149297828Y-94978552D01*
X149726400Y-94549980D02*
X149154971Y-95121409D01*
X150154971Y-95026171D02*
X150488304Y-95026171D01*
X150631161Y-95549980D02*
X150154971Y-95549980D01*
X150154971Y-94549980D01*
X150631161Y-94549980D01*
X151631161Y-95549980D02*
X151297828Y-95073790D01*
X151059733Y-95549980D02*
X151059733Y-94549980D01*
X151440685Y-94549980D01*
X151535923Y-94597600D01*
X151583542Y-94645219D01*
X151631161Y-94740457D01*
X151631161Y-94883314D01*
X151583542Y-94978552D01*
X151535923Y-95026171D01*
X151440685Y-95073790D01*
X151059733Y-95073790D01*
X158882009Y-118435380D02*
X158882009Y-117435380D01*
X159262961Y-117435380D01*
X159358200Y-117483000D01*
X159405819Y-117530619D01*
X159453438Y-117625857D01*
X159453438Y-117768714D01*
X159405819Y-117863952D01*
X159358200Y-117911571D01*
X159262961Y-117959190D01*
X158882009Y-117959190D01*
X160024866Y-118435380D02*
X159929628Y-118387761D01*
X159882009Y-118340142D01*
X159834390Y-118244904D01*
X159834390Y-117959190D01*
X159882009Y-117863952D01*
X159929628Y-117816333D01*
X160024866Y-117768714D01*
X160167723Y-117768714D01*
X160262961Y-117816333D01*
X160310580Y-117863952D01*
X160358200Y-117959190D01*
X160358200Y-118244904D01*
X160310580Y-118340142D01*
X160262961Y-118387761D01*
X160167723Y-118435380D01*
X160024866Y-118435380D01*
X160691533Y-117768714D02*
X160882009Y-118435380D01*
X161072485Y-117959190D01*
X161262961Y-118435380D01*
X161453438Y-117768714D01*
X162215342Y-118387761D02*
X162120104Y-118435380D01*
X161929628Y-118435380D01*
X161834390Y-118387761D01*
X161786771Y-118292523D01*
X161786771Y-117911571D01*
X161834390Y-117816333D01*
X161929628Y-117768714D01*
X162120104Y-117768714D01*
X162215342Y-117816333D01*
X162262961Y-117911571D01*
X162262961Y-118006809D01*
X161786771Y-118102047D01*
X162691533Y-118435380D02*
X162691533Y-117768714D01*
X162691533Y-117959190D02*
X162739152Y-117863952D01*
X162786771Y-117816333D01*
X162882009Y-117768714D01*
X162977247Y-117768714D01*
X174662980Y-120824523D02*
X175377266Y-120824523D01*
X175520123Y-120872142D01*
X175615361Y-120967380D01*
X175662980Y-121110238D01*
X175662980Y-121205476D01*
X175662980Y-119824523D02*
X175662980Y-120395952D01*
X175662980Y-120110238D02*
X174662980Y-120110238D01*
X174805838Y-120205476D01*
X174901076Y-120300714D01*
X174948695Y-120395952D01*
X174662980Y-118919761D02*
X174662980Y-119395952D01*
X175139171Y-119443571D01*
X175091552Y-119395952D01*
X175043933Y-119300714D01*
X175043933Y-119062619D01*
X175091552Y-118967380D01*
X175139171Y-118919761D01*
X175234409Y-118872142D01*
X175472504Y-118872142D01*
X175567742Y-118919761D01*
X175615361Y-118967380D01*
X175662980Y-119062619D01*
X175662980Y-119300714D01*
X175615361Y-119395952D01*
X175567742Y-119443571D01*
X143148561Y-118048066D02*
X143624752Y-118048066D01*
X143053323Y-118333780D02*
X143386657Y-117333780D01*
X143719990Y-118333780D01*
X144481895Y-117667114D02*
X144481895Y-118333780D01*
X144053323Y-117667114D02*
X144053323Y-118190923D01*
X144100942Y-118286161D01*
X144196180Y-118333780D01*
X144339038Y-118333780D01*
X144434276Y-118286161D01*
X144481895Y-118238542D01*
X145386657Y-118333780D02*
X145386657Y-117333780D01*
X145386657Y-118286161D02*
X145291419Y-118333780D01*
X145100942Y-118333780D01*
X145005704Y-118286161D01*
X144958085Y-118238542D01*
X144910466Y-118143304D01*
X144910466Y-117857590D01*
X144958085Y-117762352D01*
X145005704Y-117714733D01*
X145100942Y-117667114D01*
X145291419Y-117667114D01*
X145386657Y-117714733D01*
X145862847Y-118333780D02*
X145862847Y-117667114D01*
X145862847Y-117333780D02*
X145815228Y-117381400D01*
X145862847Y-117429019D01*
X145910466Y-117381400D01*
X145862847Y-117333780D01*
X145862847Y-117429019D01*
X146481895Y-118333780D02*
X146386657Y-118286161D01*
X146339038Y-118238542D01*
X146291419Y-118143304D01*
X146291419Y-117857590D01*
X146339038Y-117762352D01*
X146386657Y-117714733D01*
X146481895Y-117667114D01*
X146624752Y-117667114D01*
X146719990Y-117714733D01*
X146767609Y-117762352D01*
X146815228Y-117857590D01*
X146815228Y-118143304D01*
X146767609Y-118238542D01*
X146719990Y-118286161D01*
X146624752Y-118333780D01*
X146481895Y-118333780D01*
X148005704Y-118333780D02*
X148005704Y-117333780D01*
X148481895Y-117667114D02*
X148481895Y-118333780D01*
X148481895Y-117762352D02*
X148529514Y-117714733D01*
X148624752Y-117667114D01*
X148767609Y-117667114D01*
X148862847Y-117714733D01*
X148910466Y-117809971D01*
X148910466Y-118333780D01*
X149386657Y-117667114D02*
X149386657Y-118667114D01*
X149386657Y-117714733D02*
X149481895Y-117667114D01*
X149672371Y-117667114D01*
X149767609Y-117714733D01*
X149815228Y-117762352D01*
X149862847Y-117857590D01*
X149862847Y-118143304D01*
X149815228Y-118238542D01*
X149767609Y-118286161D01*
X149672371Y-118333780D01*
X149481895Y-118333780D01*
X149386657Y-118286161D01*
X150719990Y-117667114D02*
X150719990Y-118333780D01*
X150291419Y-117667114D02*
X150291419Y-118190923D01*
X150339038Y-118286161D01*
X150434276Y-118333780D01*
X150577133Y-118333780D01*
X150672371Y-118286161D01*
X150719990Y-118238542D01*
X151053323Y-117667114D02*
X151434276Y-117667114D01*
X151196180Y-117333780D02*
X151196180Y-118190923D01*
X151243800Y-118286161D01*
X151339038Y-118333780D01*
X151434276Y-118333780D01*
D13*
G36*
X146329400Y-92227055D02*
G01*
X134943431Y-92196201D01*
X134874613Y-89833453D01*
X146329400Y-89814609D01*
X146329400Y-92227055D01*
X146329400Y-92227055D01*
G37*
X146329400Y-92227055D02*
X134943431Y-92196201D01*
X134874613Y-89833453D01*
X146329400Y-89814609D01*
X146329400Y-92227055D01*
G36*
X175190796Y-88290232D02*
G01*
X175306498Y-90328174D01*
X135015274Y-90221107D01*
X134832313Y-88233663D01*
X175190796Y-88290232D01*
X175190796Y-88290232D01*
G37*
X175190796Y-88290232D02*
X175306498Y-90328174D01*
X135015274Y-90221107D01*
X134832313Y-88233663D01*
X175190796Y-88290232D01*
G36*
X115773200Y-112771974D02*
G01*
X111810800Y-112771131D01*
X111810800Y-110435201D01*
X115773200Y-110435201D01*
X115773200Y-112771974D01*
X115773200Y-112771974D01*
G37*
X115773200Y-112771974D02*
X111810800Y-112771131D01*
X111810800Y-110435201D01*
X115773200Y-110435201D01*
X115773200Y-112771974D01*
G36*
X129009556Y-98226207D02*
G01*
X129009556Y-100563327D01*
X121615176Y-100557399D01*
X121618003Y-98201651D01*
X129009556Y-98226207D01*
X129009556Y-98226207D01*
G37*
X129009556Y-98226207D02*
X129009556Y-100563327D01*
X121615176Y-100557399D01*
X121618003Y-98201651D01*
X129009556Y-98226207D01*
G36*
X134289800Y-108788117D02*
G01*
X125192388Y-108782151D01*
X125172288Y-106426000D01*
X134289800Y-106426000D01*
X134289800Y-108788117D01*
X134289800Y-108788117D01*
G37*
X134289800Y-108788117D02*
X125192388Y-108782151D01*
X125172288Y-106426000D01*
X134289800Y-106426000D01*
X134289800Y-108788117D01*
G36*
X170992800Y-118593178D02*
G01*
X167027420Y-118611286D01*
X167030248Y-116255800D01*
X170992800Y-116255800D01*
X170992800Y-118593178D01*
X170992800Y-118593178D01*
G37*
X170992800Y-118593178D02*
X167027420Y-118611286D01*
X167030248Y-116255800D01*
X170992800Y-116255800D01*
X170992800Y-118593178D01*
G36*
X141853028Y-102415781D02*
G01*
X139497466Y-102412953D01*
X139521537Y-97815400D01*
X141858839Y-97815400D01*
X141853028Y-102415781D01*
X141853028Y-102415781D01*
G37*
X141853028Y-102415781D02*
X139497466Y-102412953D01*
X139521537Y-97815400D01*
X141858839Y-97815400D01*
X141853028Y-102415781D01*
%LPC*%
D14*
X140966000Y-101964085D02*
X140966000Y-101249800D01*
X141394571Y-102106942D02*
X139894571Y-101606942D01*
X141394571Y-101106942D01*
X141394571Y-100606942D02*
X139894571Y-100606942D01*
X140966000Y-100106942D01*
X139894571Y-99606942D01*
X141394571Y-99606942D01*
X141394571Y-98892657D02*
X139894571Y-98892657D01*
X139894571Y-98321228D01*
X139966000Y-98178371D01*
X140037428Y-98106942D01*
X140180285Y-98035514D01*
X140394571Y-98035514D01*
X140537428Y-98106942D01*
X140608857Y-98178371D01*
X140680285Y-98321228D01*
X140680285Y-98892657D01*
X168547314Y-117444057D02*
X168761600Y-117515485D01*
X168833028Y-117586914D01*
X168904457Y-117729771D01*
X168904457Y-117944057D01*
X168833028Y-118086914D01*
X168761600Y-118158342D01*
X168618742Y-118229771D01*
X168047314Y-118229771D01*
X168047314Y-116729771D01*
X168547314Y-116729771D01*
X168690171Y-116801200D01*
X168761600Y-116872628D01*
X168833028Y-117015485D01*
X168833028Y-117158342D01*
X168761600Y-117301200D01*
X168690171Y-117372628D01*
X168547314Y-117444057D01*
X168047314Y-117444057D01*
X169333028Y-116729771D02*
X170190171Y-116729771D01*
X169761600Y-118229771D02*
X169761600Y-116729771D01*
X125554314Y-106976171D02*
X126054314Y-108476171D01*
X126554314Y-106976171D01*
X127340028Y-106976171D02*
X127625742Y-106976171D01*
X127768600Y-107047600D01*
X127911457Y-107190457D01*
X127982885Y-107476171D01*
X127982885Y-107976171D01*
X127911457Y-108261885D01*
X127768600Y-108404742D01*
X127625742Y-108476171D01*
X127340028Y-108476171D01*
X127197171Y-108404742D01*
X127054314Y-108261885D01*
X126982885Y-107976171D01*
X126982885Y-107476171D01*
X127054314Y-107190457D01*
X127197171Y-107047600D01*
X127340028Y-106976171D01*
X129340028Y-108476171D02*
X128625742Y-108476171D01*
X128625742Y-106976171D01*
X129840028Y-106976171D02*
X129840028Y-108190457D01*
X129911457Y-108333314D01*
X129982885Y-108404742D01*
X130125742Y-108476171D01*
X130411457Y-108476171D01*
X130554314Y-108404742D01*
X130625742Y-108333314D01*
X130697171Y-108190457D01*
X130697171Y-106976171D01*
X131411457Y-108476171D02*
X131411457Y-106976171D01*
X131911457Y-108047600D01*
X132411457Y-106976171D01*
X132411457Y-108476171D01*
X133125742Y-107690457D02*
X133625742Y-107690457D01*
X133840028Y-108476171D02*
X133125742Y-108476171D01*
X133125742Y-106976171D01*
X133840028Y-106976171D01*
X121869628Y-99967171D02*
X121869628Y-98467171D01*
X122226771Y-98467171D01*
X122441057Y-98538600D01*
X122583914Y-98681457D01*
X122655342Y-98824314D01*
X122726771Y-99110028D01*
X122726771Y-99324314D01*
X122655342Y-99610028D01*
X122583914Y-99752885D01*
X122441057Y-99895742D01*
X122226771Y-99967171D01*
X121869628Y-99967171D01*
X124226771Y-99824314D02*
X124155342Y-99895742D01*
X123941057Y-99967171D01*
X123798200Y-99967171D01*
X123583914Y-99895742D01*
X123441057Y-99752885D01*
X123369628Y-99610028D01*
X123298200Y-99324314D01*
X123298200Y-99110028D01*
X123369628Y-98824314D01*
X123441057Y-98681457D01*
X123583914Y-98538600D01*
X123798200Y-98467171D01*
X123941057Y-98467171D01*
X124155342Y-98538600D01*
X124226771Y-98610028D01*
X125941057Y-98395742D02*
X124655342Y-100324314D01*
X126441057Y-99967171D02*
X126441057Y-98467171D01*
X126798200Y-98467171D01*
X127012485Y-98538600D01*
X127155342Y-98681457D01*
X127226771Y-98824314D01*
X127298200Y-99110028D01*
X127298200Y-99324314D01*
X127226771Y-99610028D01*
X127155342Y-99752885D01*
X127012485Y-99895742D01*
X126798200Y-99967171D01*
X126441057Y-99967171D01*
X128798200Y-99824314D02*
X128726771Y-99895742D01*
X128512485Y-99967171D01*
X128369628Y-99967171D01*
X128155342Y-99895742D01*
X128012485Y-99752885D01*
X127941057Y-99610028D01*
X127869628Y-99324314D01*
X127869628Y-99110028D01*
X127941057Y-98824314D01*
X128012485Y-98681457D01*
X128155342Y-98538600D01*
X128369628Y-98467171D01*
X128512485Y-98467171D01*
X128726771Y-98538600D01*
X128798200Y-98610028D01*
X112750742Y-112387771D02*
X112750742Y-110887771D01*
X113107885Y-110887771D01*
X113322171Y-110959200D01*
X113465028Y-111102057D01*
X113536457Y-111244914D01*
X113607885Y-111530628D01*
X113607885Y-111744914D01*
X113536457Y-112030628D01*
X113465028Y-112173485D01*
X113322171Y-112316342D01*
X113107885Y-112387771D01*
X112750742Y-112387771D01*
X115107885Y-112244914D02*
X115036457Y-112316342D01*
X114822171Y-112387771D01*
X114679314Y-112387771D01*
X114465028Y-112316342D01*
X114322171Y-112173485D01*
X114250742Y-112030628D01*
X114179314Y-111744914D01*
X114179314Y-111530628D01*
X114250742Y-111244914D01*
X114322171Y-111102057D01*
X114465028Y-110959200D01*
X114679314Y-110887771D01*
X114822171Y-110887771D01*
X115036457Y-110959200D01*
X115107885Y-111030628D01*
X138102085Y-89178628D02*
X137949704Y-89107200D01*
X137873514Y-89035771D01*
X137797323Y-88892914D01*
X137797323Y-88821485D01*
X137873514Y-88678628D01*
X137949704Y-88607200D01*
X138102085Y-88535771D01*
X138406847Y-88535771D01*
X138559228Y-88607200D01*
X138635419Y-88678628D01*
X138711609Y-88821485D01*
X138711609Y-88892914D01*
X138635419Y-89035771D01*
X138559228Y-89107200D01*
X138406847Y-89178628D01*
X138102085Y-89178628D01*
X137949704Y-89250057D01*
X137873514Y-89321485D01*
X137797323Y-89464342D01*
X137797323Y-89750057D01*
X137873514Y-89892914D01*
X137949704Y-89964342D01*
X138102085Y-90035771D01*
X138406847Y-90035771D01*
X138559228Y-89964342D01*
X138635419Y-89892914D01*
X138711609Y-89750057D01*
X138711609Y-89464342D01*
X138635419Y-89321485D01*
X138559228Y-89250057D01*
X138406847Y-89178628D01*
X142902085Y-88535771D02*
X143968752Y-88535771D01*
X143283038Y-90035771D01*
X148921133Y-88535771D02*
X148616371Y-88535771D01*
X148463990Y-88607200D01*
X148387800Y-88678628D01*
X148235419Y-88892914D01*
X148159228Y-89178628D01*
X148159228Y-89750057D01*
X148235419Y-89892914D01*
X148311609Y-89964342D01*
X148463990Y-90035771D01*
X148768752Y-90035771D01*
X148921133Y-89964342D01*
X148997323Y-89892914D01*
X149073514Y-89750057D01*
X149073514Y-89392914D01*
X148997323Y-89250057D01*
X148921133Y-89178628D01*
X148768752Y-89107200D01*
X148463990Y-89107200D01*
X148311609Y-89178628D01*
X148235419Y-89250057D01*
X148159228Y-89392914D01*
X154178276Y-88535771D02*
X153416371Y-88535771D01*
X153340180Y-89250057D01*
X153416371Y-89178628D01*
X153568752Y-89107200D01*
X153949704Y-89107200D01*
X154102085Y-89178628D01*
X154178276Y-89250057D01*
X154254466Y-89392914D01*
X154254466Y-89750057D01*
X154178276Y-89892914D01*
X154102085Y-89964342D01*
X153949704Y-90035771D01*
X153568752Y-90035771D01*
X153416371Y-89964342D01*
X153340180Y-89892914D01*
X159283038Y-89035771D02*
X159283038Y-90035771D01*
X158902085Y-88464342D02*
X158521133Y-89535771D01*
X159511609Y-89535771D01*
X163625895Y-88535771D02*
X164616371Y-88535771D01*
X164083038Y-89107200D01*
X164311609Y-89107200D01*
X164463990Y-89178628D01*
X164540180Y-89250057D01*
X164616371Y-89392914D01*
X164616371Y-89750057D01*
X164540180Y-89892914D01*
X164463990Y-89964342D01*
X164311609Y-90035771D01*
X163854466Y-90035771D01*
X163702085Y-89964342D01*
X163625895Y-89892914D01*
X168883038Y-88678628D02*
X168959228Y-88607200D01*
X169111609Y-88535771D01*
X169492561Y-88535771D01*
X169644942Y-88607200D01*
X169721133Y-88678628D01*
X169797323Y-88821485D01*
X169797323Y-88964342D01*
X169721133Y-89178628D01*
X168806847Y-90035771D01*
X169797323Y-90035771D01*
X174978276Y-90035771D02*
X174063990Y-90035771D01*
X174521133Y-90035771D02*
X174521133Y-88535771D01*
X174368752Y-88750057D01*
X174216371Y-88892914D01*
X174063990Y-88964342D01*
X135986628Y-91915371D02*
X135272342Y-91915371D01*
X135272342Y-90415371D01*
X136486628Y-91129657D02*
X136986628Y-91129657D01*
X137200914Y-91915371D02*
X136486628Y-91915371D01*
X136486628Y-90415371D01*
X137200914Y-90415371D01*
X137843771Y-91915371D02*
X137843771Y-90415371D01*
X138200914Y-90415371D01*
X138415200Y-90486800D01*
X138558057Y-90629657D01*
X138629485Y-90772514D01*
X138700914Y-91058228D01*
X138700914Y-91272514D01*
X138629485Y-91558228D01*
X138558057Y-91701085D01*
X138415200Y-91843942D01*
X138200914Y-91915371D01*
X137843771Y-91915371D01*
X140415200Y-91843942D02*
X140629485Y-91915371D01*
X140986628Y-91915371D01*
X141129485Y-91843942D01*
X141200914Y-91772514D01*
X141272342Y-91629657D01*
X141272342Y-91486800D01*
X141200914Y-91343942D01*
X141129485Y-91272514D01*
X140986628Y-91201085D01*
X140700914Y-91129657D01*
X140558057Y-91058228D01*
X140486628Y-90986800D01*
X140415200Y-90843942D01*
X140415200Y-90701085D01*
X140486628Y-90558228D01*
X140558057Y-90486800D01*
X140700914Y-90415371D01*
X141058057Y-90415371D01*
X141272342Y-90486800D01*
X141700914Y-90415371D02*
X142558057Y-90415371D01*
X142129485Y-91915371D02*
X142129485Y-90415371D01*
X143915200Y-91915371D02*
X143415200Y-91201085D01*
X143058057Y-91915371D02*
X143058057Y-90415371D01*
X143629485Y-90415371D01*
X143772342Y-90486800D01*
X143843771Y-90558228D01*
X143915200Y-90701085D01*
X143915200Y-90915371D01*
X143843771Y-91058228D01*
X143772342Y-91129657D01*
X143629485Y-91201085D01*
X143058057Y-91201085D01*
X144558057Y-91915371D02*
X144558057Y-90415371D01*
X145272342Y-91915371D02*
X145272342Y-90415371D01*
X145843771Y-90415371D01*
X145986628Y-90486800D01*
X146058057Y-90558228D01*
X146129485Y-90701085D01*
X146129485Y-90915371D01*
X146058057Y-91058228D01*
X145986628Y-91129657D01*
X145843771Y-91201085D01*
X145272342Y-91201085D01*
D15*
X138938000Y-123825000D03*
X141478000Y-123825000D03*
X144018000Y-123825000D03*
X146558000Y-123825000D03*
X149098000Y-123825000D03*
X151638000Y-123825000D03*
X154178000Y-123825000D03*
X156718000Y-123825000D03*
X161798000Y-123825000D03*
X164338000Y-123825000D03*
X166878000Y-123825000D03*
X169418000Y-123825000D03*
X171958000Y-123825000D03*
X174498000Y-123825000D03*
X129794000Y-75565000D03*
X132334000Y-75565000D03*
X134874000Y-75565000D03*
X137414000Y-75565000D03*
X139954000Y-75565000D03*
X142494000Y-75565000D03*
X145034000Y-75565000D03*
X147574000Y-75565000D03*
X150114000Y-75565000D03*
X152654000Y-75565000D03*
X156718000Y-75565000D03*
X159258000Y-75565000D03*
X161798000Y-75565000D03*
X164338000Y-75565000D03*
X166878000Y-75565000D03*
X169418000Y-75565000D03*
X171958000Y-75565000D03*
X174498000Y-75565000D03*
D16*
X124968000Y-123825000D03*
X177038000Y-118745000D03*
X126238000Y-75565000D03*
X177038000Y-90805000D03*
D17*
X121640600Y-105689400D03*
D12*
G36*
X116464113Y-103943011D02*
G01*
X116536918Y-103953811D01*
X116608314Y-103971695D01*
X116677613Y-103996490D01*
X116744148Y-104027959D01*
X116807278Y-104065798D01*
X116866395Y-104109642D01*
X116920930Y-104159070D01*
X116970358Y-104213605D01*
X117014202Y-104272722D01*
X117052041Y-104335852D01*
X117083510Y-104402387D01*
X117108305Y-104471686D01*
X117126189Y-104543082D01*
X117136989Y-104615887D01*
X117140600Y-104689400D01*
X117140600Y-106689400D01*
X117136989Y-106762913D01*
X117126189Y-106835718D01*
X117108305Y-106907114D01*
X117083510Y-106976413D01*
X117052041Y-107042948D01*
X117014202Y-107106078D01*
X116970358Y-107165195D01*
X116920930Y-107219730D01*
X116866395Y-107269158D01*
X116807278Y-107313002D01*
X116744148Y-107350841D01*
X116677613Y-107382310D01*
X116608314Y-107407105D01*
X116536918Y-107424989D01*
X116464113Y-107435789D01*
X116390600Y-107439400D01*
X114890600Y-107439400D01*
X114817087Y-107435789D01*
X114744282Y-107424989D01*
X114672886Y-107407105D01*
X114603587Y-107382310D01*
X114537052Y-107350841D01*
X114473922Y-107313002D01*
X114414805Y-107269158D01*
X114360270Y-107219730D01*
X114310842Y-107165195D01*
X114266998Y-107106078D01*
X114229159Y-107042948D01*
X114197690Y-106976413D01*
X114172895Y-106907114D01*
X114155011Y-106835718D01*
X114144211Y-106762913D01*
X114140600Y-106689400D01*
X114140600Y-104689400D01*
X114144211Y-104615887D01*
X114155011Y-104543082D01*
X114172895Y-104471686D01*
X114197690Y-104402387D01*
X114229159Y-104335852D01*
X114266998Y-104272722D01*
X114310842Y-104213605D01*
X114360270Y-104159070D01*
X114414805Y-104109642D01*
X114473922Y-104065798D01*
X114537052Y-104027959D01*
X114603587Y-103996490D01*
X114672886Y-103971695D01*
X114744282Y-103953811D01*
X114817087Y-103943011D01*
X114890600Y-103939400D01*
X116390600Y-103939400D01*
X116464113Y-103943011D01*
X116464113Y-103943011D01*
G37*
D18*
X115640600Y-105689400D03*
D12*
G36*
X119601365Y-108643613D02*
G01*
X119686304Y-108656213D01*
X119769599Y-108677077D01*
X119850448Y-108706005D01*
X119928072Y-108742719D01*
X120001724Y-108786864D01*
X120070694Y-108838016D01*
X120134318Y-108895682D01*
X120191984Y-108959306D01*
X120243136Y-109028276D01*
X120287281Y-109101928D01*
X120323995Y-109179552D01*
X120352923Y-109260401D01*
X120373787Y-109343696D01*
X120386387Y-109428635D01*
X120390600Y-109514400D01*
X120390600Y-111264400D01*
X120386387Y-111350165D01*
X120373787Y-111435104D01*
X120352923Y-111518399D01*
X120323995Y-111599248D01*
X120287281Y-111676872D01*
X120243136Y-111750524D01*
X120191984Y-111819494D01*
X120134318Y-111883118D01*
X120070694Y-111940784D01*
X120001724Y-111991936D01*
X119928072Y-112036081D01*
X119850448Y-112072795D01*
X119769599Y-112101723D01*
X119686304Y-112122587D01*
X119601365Y-112135187D01*
X119515600Y-112139400D01*
X117765600Y-112139400D01*
X117679835Y-112135187D01*
X117594896Y-112122587D01*
X117511601Y-112101723D01*
X117430752Y-112072795D01*
X117353128Y-112036081D01*
X117279476Y-111991936D01*
X117210506Y-111940784D01*
X117146882Y-111883118D01*
X117089216Y-111819494D01*
X117038064Y-111750524D01*
X116993919Y-111676872D01*
X116957205Y-111599248D01*
X116928277Y-111518399D01*
X116907413Y-111435104D01*
X116894813Y-111350165D01*
X116890600Y-111264400D01*
X116890600Y-109514400D01*
X116894813Y-109428635D01*
X116907413Y-109343696D01*
X116928277Y-109260401D01*
X116957205Y-109179552D01*
X116993919Y-109101928D01*
X117038064Y-109028276D01*
X117089216Y-108959306D01*
X117146882Y-108895682D01*
X117210506Y-108838016D01*
X117279476Y-108786864D01*
X117353128Y-108742719D01*
X117430752Y-108706005D01*
X117511601Y-108677077D01*
X117594896Y-108656213D01*
X117679835Y-108643613D01*
X117765600Y-108639400D01*
X119515600Y-108639400D01*
X119601365Y-108643613D01*
X119601365Y-108643613D01*
G37*
D19*
X118640600Y-110389400D03*
D20*
X168122600Y-108189400D03*
X168122600Y-103189400D03*
X168122600Y-110689400D03*
X168122600Y-100689400D03*
D21*
X173122600Y-105689400D03*
D22*
X168122600Y-105689400D03*
X173122600Y-110689400D03*
X175622600Y-110689400D03*
X173122600Y-100689400D03*
X175622600Y-100689400D03*
D23*
X138709400Y-81686400D03*
D24*
X138709400Y-84226400D03*
X138709400Y-86766400D03*
X143789400Y-86766400D03*
X143789400Y-84226400D03*
D23*
X143789400Y-81686400D03*
X148869400Y-81686400D03*
D24*
X148869400Y-84226400D03*
X148869400Y-86766400D03*
X153949400Y-86766400D03*
X153949400Y-84226400D03*
D23*
X153949400Y-81686400D03*
X159029400Y-81686400D03*
D24*
X159029400Y-84226400D03*
X159029400Y-86766400D03*
X164109400Y-86766400D03*
X164109400Y-84226400D03*
D23*
X164109400Y-81686400D03*
X169189400Y-81686400D03*
D24*
X169189400Y-84226400D03*
X169189400Y-86766400D03*
X174269400Y-86766400D03*
X174269400Y-84226400D03*
D23*
X174269400Y-81686400D03*
D25*
X146075400Y-119786400D03*
D26*
X143535400Y-119786400D03*
D22*
X167379400Y-95961200D03*
D27*
X165379400Y-95961200D03*
X170332400Y-95961200D03*
D22*
X172332400Y-95961200D03*
D27*
X174472600Y-114300000D03*
D22*
X172472600Y-114300000D03*
D27*
X137718800Y-94411800D03*
D22*
X137718800Y-96411800D03*
X139065000Y-104959400D03*
D27*
X139065000Y-106959400D03*
D28*
X137101600Y-117373400D03*
X132101600Y-117373400D03*
X127101600Y-117373400D03*
X137101600Y-112373400D03*
X132101600Y-112373400D03*
X127101600Y-112373400D03*
D24*
X113563400Y-95707200D03*
D23*
X113563400Y-93167200D03*
X113588800Y-82524600D03*
D24*
X113588800Y-85064600D03*
D23*
X132130800Y-93192600D03*
D24*
X132130800Y-95732600D03*
X132080000Y-85090000D03*
D23*
X132080000Y-82550000D03*
D24*
X159512000Y-92659200D03*
D23*
X162052000Y-92659200D03*
X149504400Y-92659200D03*
D24*
X146964400Y-92659200D03*
D23*
X162077400Y-97561400D03*
D24*
X159537400Y-97561400D03*
X146964400Y-97561400D03*
D23*
X149504400Y-97561400D03*
D24*
X159512000Y-115544600D03*
D23*
X162052000Y-115544600D03*
X172440600Y-120015000D03*
D24*
X169900600Y-120015000D03*
X167360600Y-120015000D03*
X164820600Y-120015000D03*
X162280600Y-120015000D03*
X159740600Y-120015000D03*
X157200600Y-120015000D03*
D23*
X149504400Y-115570000D03*
D24*
X146964400Y-115570000D03*
X144424400Y-115570000D03*
M02*
